<svg xmlns="http://www.w3.org/2000/svg" width="28px" height="28px" viewBox="0 0 342 342">
<path id="cat" class="st0" d="M301.087,114.315q-0.463,2.776-.926,5.553h-19.45q0.925,4.626,1.852,9.253c2.546,0.091,4.991.093,7.41,0a46,46,0,0,1,5.557,0c1.893,0.142,4.221.583,6.483,0.926,0.874,0.132,2.038.33,2.5,0.362,2.149,0.149,3.565-.265,4.914.563,1.694,1.04,1.271,2.581,2.778,3.7,2.031,1.51,4.779.116,6.484,1.851a3.613,3.613,0,0,1,.926,1.851q-0.463.925-.926,1.851l-35.2-1.851V143q2.325,0.474,4.631.925a59.19,59.19,0,0,1,6.076,1.382,34.724,34.724,0,0,1,8.743,4.17q-0.462,2.313-.926,4.627h-0.926c-1.241-.365-2.466-0.671-3.7-0.925-2.872-.59-4.91-0.577-6.483-1.851-0.959-.776-1.548-1.7-2.779-1.851a3.87,3.87,0,0,0-2.778.926v3.7c0.333,1.549.638,3.068,0.926,4.627,0.344,1.86.647,3.681,0.926,5.552a22.74,22.74,0,0,0,12.967,0,15.158,15.158,0,0,0,3.7-1.851c1.5-1.03,2.578-2.168,3.7-1.85,0.882,0.248,1.471,1.295,1.853,2.776a6.867,6.867,0,0,0-1.853,4.627c0.071,1.76,1.074,2.747,1.853,4.626a15.321,15.321,0,0,1,.926,3.7,20.441,20.441,0,0,1,0,4.627c-0.3,3.807-.51,6.262-1.853,7.4-0.8.677-2.623,1.036-2.778,1.85s1.082,1.813,2.778,2.776a8.871,8.871,0,0,0,4.631,2.776,13.8,13.8,0,0,0,3.7,0c1.912-.228,3.049-0.621,3.7,0,0.689,0.654.543,2.055,0,3.7a9.267,9.267,0,0,0-1.932.132c-1.1.193-1.695,0.491-1.773,0.793-0.14.54,0.8,1.038,0.926,1.851a2.781,2.781,0,0,1-1.776,2.7c-0.8.294-1.312-.072-1.928,0.078-1.552.377-2.366,3.048-2.779,6.478a29.149,29.149,0,0,1-6.483,2.776c-2.984.861-5.368,0.935-8.336,1.85a30.863,30.863,0,0,0-4.631,1.851,66.161,66.161,0,0,0-9.262,10.179c-3.16,4.3-5.225,8.759-7.9,14.08-4.527,9-7.952,15.062-8.77,22.935a45.134,45.134,0,0,0,0,9.253c1.752,3.477,3.58,6.826,5.558,10.179,2.056,3.489,4.191,6.84,6.483,10.179a153.12,153.12,0,0,1,3.7,34.239l-212.1-.925c-0.244-15.327,2.437-28.911,8.336-40.716,3.483-6.97,9.79-16.815,7.41-28.687a31.6,31.6,0,0,0-5.557-12.029c-4.764-6.748-11.491-15.552-12.967-18.508a35.219,35.219,0,0,0-7.41-10.179,28.2,28.2,0,0,0-3.7-2.776,21.161,21.161,0,0,0-4.042,1.455c-3.945,1.918-4.462,3.961-12.629,4.1l-6.483-3.7a42.621,42.621,0,0,1-3.7-14.806,36.5,36.5,0,0,0-5.57-.414,2.292,2.292,0,0,1-1.84-.511c-0.553-.629-0.4-1.736,0-2.776,2.568,0.491,4.815.281,6.483-.926,1.473-1.065,2.281-3.076,2.779-3.7,1.79-2.251,4.891-3.457,9.262-3.7-2.908-5.83-3.757-10.454-1.913-13.513a10.875,10.875,0,0,0,1.913-3.143c0.572-2.075-.3-3.5,0-5.552a8.557,8.557,0,0,1,.926-2.777c1.868-.088,3.341.12,3.7,0.926,0.283,0.628-.3,1.209,0,1.851,0.373,0.8,1.813,1.027,3.7.925a10.265,10.265,0,0,0,3.7-.925v-0.926l-0.926-2.776L39.9,162.434a3.655,3.655,0,0,1,0-2.776c0.785-1.621,2.977-1.822,4.987-2.485a15.2,15.2,0,0,0,6.128-3.992V146.7a5.312,5.312,0,0,0-1.852-.925,6.3,6.3,0,0,0-2.779,0,45.968,45.968,0,0,1-10.429.82,16.681,16.681,0,0,1-7.169-1.746A15.2,15.2,0,0,1,26.007,143l2.779-1.851a108.183,108.183,0,0,1,15.745-2.776c4.666-.463,10.09-0.734,10.188-1.851a1.359,1.359,0,0,0-.926-0.925l-14.819-.926,0.926-4.626A34.6,34.6,0,0,0,56.572,128.2a32.88,32.88,0,0,0,3.7-15.731c-2.345-3.915-4.5-7.907-6.483-12.03a157.219,157.219,0,0,1-8.336-21.284A142.642,142.642,0,0,1,39.9,55.092a121.283,121.283,0,0,1-.926-18.507A10.586,10.586,0,0,1,43.6,31.958a11.068,11.068,0,0,1,4.631-.925c2.662,0.041,14.564-1.709,23.155,0,7.55,1.5,16.932,6.458,19.45,7.4,5.623,2.109,10.138,2.476,15.745,4.627A46.414,46.414,0,0,0,117.7,45.838a50.039,50.039,0,0,0,7.41,0,55.486,55.486,0,0,0,7.41-.925c2.623-.527,4.793-1.29,7.409-1.851,1.526-.327,3.607-0.659,5.557-0.925,5.176-.708,12.2-1.363,18.524-1.851L195.5,41.212a58.414,58.414,0,0,0,13.893-2.776,52.3,52.3,0,0,0,12.04-5.552c1.7-1.2,6.2-5.188,10.188-7.4,0.922-.512,2.4-1.237,3.7-1.851,1.827-.862,4.223-1.865,6.483-2.776,1.592-.641,3.518-1.344,4.631-1.851,2.779-1.266,4.524-2.7,7.41-3.7,5.314-1.838,9.613-1.624,12.967,0a14.913,14.913,0,0,1,6.483,6.478c1.475,2.716,2.023,6.61,1.852,12.03A61.438,61.438,0,0,1,273.3,47.689c-0.836,2.666-1.9,4.75-2.779,7.4-0.731,2.209-1.177,4.25-1.852,6.477-0.741,2.447-1.707,4.574-1.852,6.478-0.153,2,.1,3.584-0.927,5.552-0.6,1.156-1.313,1.589-1.852,2.776-0.915,2.015-.369,3.588,0,6.478,0.328,2.567-.021,4.356.926,6.478a13.283,13.283,0,0,0,3.705,4.627,33.859,33.859,0,0,1,6.483,7.4c1.367,2.333,1.886,4.516,2.779,7.4,0.575,1.861,1.183,3.68,1.852,5.552h21.3Z"/>
</svg>
