<?xml version="1.0" standalone="no"?>
<!DOCTYPE svg PUBLIC "-//W3C//DTD SVG 20010904//EN"
 "http://www.w3.org/TR/2001/REC-SVG-20010904/DTD/svg10.dtd">
<svg version="1.0" xmlns="http://www.w3.org/2000/svg"
 width="1368.000000pt" height="1368.000000pt" viewBox="0 0 1368.000000 1368.000000"
 preserveAspectRatio="xMidYMid meet">
<metadata>
Created by potrace 1.14, written by Peter Selinger 2001-2017
</metadata>
<g transform="translate(0.000000,1368.000000) scale(0.100000,-0.100000)"
fill="#000000" stroke="none">
<path d="M10580 13671 c0 -6 4 -13 10 -16 6 -3 7 1 4 9 -7 18 -14 21 -14 7z"/>
<path d="M10610 13668 c0 -4 4 -8 9 -8 6 0 12 4 15 8 3 5 -1 9 -9 9 -8 0 -15
-4 -15 -9z"/>
<path d="M10643 13666 c-6 -8 -10 -16 -8 -18 3 -2 -12 -3 -32 -1 -20 1 -41 -1
-47 -5 -15 -9 -56 -11 -50 -1 2 4 0 11 -6 14 -6 4 -9 1 -8 -6 2 -6 -3 -14 -11
-17 -10 -3 -11 0 -5 9 6 11 5 12 -8 2 -8 -7 -18 -10 -22 -6 -4 4 -4 -1 0 -12
7 -17 6 -18 -8 -7 -14 11 -19 9 -32 -10 -9 -12 -16 -18 -16 -12 0 6 -7 11 -15
11 -11 0 -12 -4 -4 -13 8 -10 6 -12 -10 -9 -12 2 -19 0 -16 -6 4 -5 -1 -9 -10
-9 -9 0 -13 -4 -10 -10 3 -5 2 -10 -4 -10 -5 0 -12 6 -14 13 -4 7 -6 6 -6 -4
-1 -21 -48 -53 -56 -39 -4 6 -12 7 -18 3 -7 -4 -15 -8 -19 -8 -3 0 -10 -4 -15
-9 -4 -5 -3 -6 4 -2 6 3 14 2 17 -3 3 -5 -8 -8 -25 -7 -16 1 -33 -2 -36 -7 -3
-6 -1 -7 5 -3 7 4 12 3 12 -2 0 -16 -13 -21 -31 -12 -15 8 -17 7 -14 -10 2
-11 -1 -23 -7 -26 -7 -4 -8 -2 -4 4 4 7 1 12 -9 12 -8 0 -18 -6 -21 -14 -3 -9
-12 -12 -21 -9 -12 5 -14 3 -8 -8 7 -12 6 -12 -11 1 -10 8 -16 10 -12 6 8 -9
-19 -35 -37 -36 -5 0 -3 5 5 10 8 5 11 10 5 10 -5 -1 -19 -7 -30 -16 -18 -13
-20 -13 -27 3 -5 15 -7 13 -7 -6 -1 -24 -1 -24 -16 -5 -14 18 -14 18 -9 -2 3
-12 0 -25 -7 -29 -8 -5 -10 -4 -5 3 4 7 2 12 -3 12 -6 0 -11 -4 -11 -10 0 -5
-7 -10 -16 -10 -8 0 -12 -4 -9 -10 3 -5 1 -10 -4 -10 -6 0 -11 5 -11 10 0 6
-4 10 -10 10 -5 0 -7 -7 -3 -16 5 -14 3 -15 -15 -5 -19 10 -21 9 -15 -6 6 -15
4 -16 -8 -6 -11 9 -18 8 -33 -3 -11 -8 -15 -14 -10 -14 6 0 16 6 23 13 11 10
13 9 9 -3 -3 -8 -14 -16 -26 -18 -12 -2 -20 -7 -18 -11 3 -4 -1 -8 -9 -8 -8 0
-12 4 -9 9 3 4 0 8 -5 8 -6 0 -11 -5 -11 -11 0 -5 -4 -7 -10 -4 -5 3 -10 -2
-10 -12 0 -15 -2 -16 -10 -3 -8 12 -10 11 -10 -5 0 -14 -7 -21 -19 -21 -11 0
-18 3 -15 7 6 10 -24 5 -33 -6 -4 -4 -2 -5 5 -1 6 4 12 2 12 -3 0 -6 -4 -11
-10 -11 -5 0 -9 -3 -7 -8 1 -4 -2 -8 -8 -9 -5 -1 -9 6 -7 15 1 10 -3 8 -11 -7
-11 -18 -16 -20 -20 -10 -4 12 -6 12 -6 0 -1 -10 -4 -11 -15 -2 -11 9 -16 9
-22 0 -4 -8 -3 -9 4 -5 7 4 12 1 12 -9 0 -12 -5 -15 -16 -11 -12 5 -15 2 -10
-9 4 -11 2 -14 -7 -8 -6 4 -22 8 -34 8 -17 1 -20 -2 -11 -12 8 -10 6 -13 -7
-13 -11 0 -15 -5 -11 -15 7 -20 1 -19 -20 3 -17 16 -18 16 -11 -2 5 -14 4 -17
-8 -12 -8 3 -15 1 -15 -5 0 -6 -5 -7 -10 -4 -6 4 -9 1 -8 -6 2 -6 -3 -14 -10
-16 -8 -3 -10 2 -6 14 3 10 -2 6 -11 -9 -8 -16 -18 -28 -21 -28 -3 0 -2 4 1
10 3 6 -1 7 -9 4 -9 -3 -13 -10 -10 -15 3 -5 -4 -9 -16 -9 -12 0 -18 -4 -15
-10 3 -5 1 -10 -4 -10 -6 0 -11 5 -11 11 0 5 -5 7 -10 4 -8 -5 -8 -11 0 -20
12 -15 -5 -16 -27 -2 -6 4 -15 2 -19 -4 -4 -7 -3 -9 3 -6 6 4 13 1 16 -6 4
-10 -2 -13 -21 -10 -22 4 -24 2 -12 -7 12 -10 11 -11 -7 -7 -23 5 -38 -16 -26
-36 4 -7 -1 -6 -10 2 -13 10 -17 10 -17 1 0 -7 -7 -10 -16 -6 -8 3 -13 2 -10
-3 8 -12 -19 -33 -30 -23 -4 4 -3 0 4 -9 14 -19 4 -33 -14 -18 -8 7 -14 6 -20
-2 -5 -8 -3 -9 6 -4 9 5 11 4 6 -4 -6 -9 -11 -9 -21 -1 -16 14 -40 -13 -31
-36 5 -14 4 -15 -8 -5 -10 8 -16 9 -21 1 -3 -5 -11 -10 -16 -10 -6 0 -7 5 -3
12 4 7 3 8 -5 4 -6 -4 -8 -12 -5 -18 5 -7 2 -9 -8 -6 -8 4 -20 -2 -27 -13 -7
-12 -17 -17 -24 -12 -20 12 -47 10 -47 -4 0 -8 5 -11 12 -7 7 4 8 3 4 -5 -6
-9 -11 -9 -21 -1 -9 8 -17 4 -29 -15 -14 -22 -20 -24 -32 -14 -12 10 -13 9 -8
-6 6 -14 4 -16 -6 -10 -10 6 -12 4 -6 -10 5 -15 4 -16 -8 -6 -11 9 -15 9 -19
-1 -4 -10 -6 -10 -6 0 -1 6 -6 12 -12 12 -6 0 -8 -7 -5 -16 5 -14 4 -15 -9 -4
-11 9 -15 9 -15 1 0 -7 -4 -10 -9 -6 -5 3 -13 0 -17 -6 -4 -7 -3 -9 4 -5 6 3
14 1 18 -6 4 -7 4 -10 -1 -6 -4 4 -16 3 -27 -3 -18 -10 -19 -8 -13 13 5 20 4
21 -5 5 -6 -9 -15 -15 -20 -12 -5 3 -11 1 -15 -4 -3 -6 -13 -8 -23 -5 -14 5
-14 4 -2 -4 10 -8 19 -7 30 1 13 11 13 10 1 -5 -7 -10 -17 -15 -22 -12 -5 3
-9 1 -9 -5 0 -6 -7 -8 -15 -5 -9 4 -15 0 -15 -7 0 -11 -3 -11 -10 1 -9 13 -10
13 -10 0 0 -13 -1 -13 -10 0 -8 13 -10 12 -10 -4 0 -13 -5 -17 -20 -13 -11 3
-23 1 -26 -5 -3 -5 -15 -8 -25 -5 -10 3 -22 0 -26 -5 -3 -7 -1 -8 5 -4 7 4 12
3 12 -2 0 -14 -35 -21 -53 -10 -12 6 -15 4 -12 -10 2 -10 -2 -19 -8 -20 -7 0
-25 -3 -40 -5 -21 -3 -27 -1 -23 9 3 8 3 14 0 14 -2 0 -9 -10 -14 -22 -8 -20
-9 -20 -9 -4 -1 19 -2 19 -21 1 -20 -18 -21 -18 -14 1 7 17 6 17 -9 5 -9 -7
-14 -18 -10 -24 3 -6 1 -7 -5 -3 -6 3 -17 0 -24 -7 -11 -12 -14 -12 -24 1 -9
12 -13 12 -19 2 -6 -9 -4 -11 6 -5 12 8 12 6 0 -8 -14 -18 -23 -22 -19 -9 2 4
-1 7 -7 7 -5 0 -9 -4 -7 -8 1 -4 -7 -3 -19 4 -12 6 -19 7 -15 1 3 -6 2 -21 -3
-34 -8 -19 -10 -20 -10 -4 -1 19 -1 19 -23 0 -19 -15 -20 -16 -9 -1 17 21 8
22 -23 1 -18 -11 -26 -12 -32 -3 -4 7 -3 9 4 5 6 -3 13 -3 16 2 2 4 -6 8 -19
8 -13 0 -21 -4 -19 -8 8 -13 -11 -9 -25 5 -9 7 -11 7 -8 1 10 -18 -21 -25 -37
-9 -16 16 -30 20 -22 7 9 -15 -35 -6 -46 9 -8 11 -9 11 -4 -3 3 -10 1 -18 -4
-18 -6 0 -10 6 -10 13 0 8 -4 7 -10 -3 -6 -9 -10 -10 -10 -3 0 6 -9 11 -20 10
-11 -1 -20 -5 -20 -9 0 -4 -5 -8 -11 -8 -5 0 -7 6 -3 13 5 8 2 8 -9 -2 -15
-12 -17 -11 -17 5 0 15 -2 16 -9 5 -5 -8 -17 -16 -25 -17 -9 -1 -14 2 -10 7 3
5 1 9 -5 9 -5 0 -12 -6 -14 -12 -4 -10 -6 -10 -6 0 -1 6 -6 12 -12 12 -5 0 -8
-4 -5 -8 8 -13 -32 -8 -46 6 -8 8 -17 6 -36 -6 -15 -10 -23 -11 -19 -4 6 8 2
12 -12 12 -12 0 -21 -5 -21 -12 0 -6 -7 -3 -16 8 -8 10 -13 14 -10 7 4 -6 2
-14 -3 -17 -5 -3 -12 2 -16 12 -6 16 -7 16 -21 -2 -9 -13 -14 -15 -14 -6 0 11
-3 11 -12 2 -15 -15 -28 -15 -28 -1 0 5 5 7 12 3 7 -5 8 -3 4 5 -6 9 -13 8
-29 -6 -11 -10 -17 -13 -14 -6 4 6 3 14 -3 18 -5 3 -10 2 -10 -4 0 -5 -9 -9
-19 -8 -11 0 -17 5 -15 9 3 5 10 5 16 2 6 -4 8 -3 5 3 -6 9 -29 10 -62 3 -20
-5 -30 1 -17 9 11 7 10 9 -3 14 -9 4 -14 3 -11 -2 3 -5 -1 -14 -8 -20 -12 -10
-14 -8 -10 11 5 21 4 21 -6 5 -9 -15 -14 -16 -26 -6 -19 15 -64 18 -64 4 0 -5
-5 -3 -10 5 -7 11 -10 11 -10 2 0 -7 -5 -10 -10 -7 -6 4 -7 11 -4 17 4 7 2 8
-5 4 -6 -4 -9 -12 -6 -17 4 -5 2 -9 -4 -9 -5 0 -12 6 -14 13 -4 8 -6 8 -6 -2
-1 -11 -4 -10 -14 4 -11 14 -16 15 -22 5 -6 -9 -4 -11 6 -5 12 7 12 5 1 -6
-11 -11 -14 -12 -21 -1 -10 17 -21 17 -32 0 -7 -11 -9 -11 -9 1 0 9 -4 10 -12
4 -11 -8 -28 -9 -69 -4 -5 0 -8 5 -5 9 3 5 -1 9 -8 9 -9 0 -12 -7 -8 -16 5
-13 3 -14 -9 -4 -11 9 -19 9 -26 2 -8 -8 -13 -8 -17 0 -4 6 -12 11 -17 11 -6
0 -8 -4 -5 -8 3 -5 -1 -9 -9 -9 -8 0 -12 4 -9 9 8 13 -10 10 -25 -4 -11 -10
-13 -10 -7 0 4 6 2 12 -3 12 -6 0 -11 -4 -11 -10 0 -5 -5 -10 -11 -10 -5 0 -7
4 -4 10 4 6 -1 7 -11 3 -13 -5 -15 -3 -10 8 4 8 1 6 -7 -4 -11 -14 -16 -15
-20 -5 -4 10 -8 10 -16 -2 -10 -13 -12 -13 -20 0 -8 12 -13 12 -30 -4 -19 -17
-21 -17 -27 -3 -5 15 -9 14 -26 -6 -11 -12 -17 -17 -14 -11 3 7 -2 18 -11 25
-9 8 -14 10 -11 4 3 -5 0 -16 -8 -23 -8 -7 -14 -8 -14 -2 0 5 -5 10 -11 10 -6
0 -9 -6 -6 -14 8 -20 -4 -28 -20 -15 -10 9 -17 8 -30 -2 -11 -10 -14 -10 -9
-1 4 6 3 12 -1 12 -5 0 -15 -6 -22 -12 -11 -10 -13 -10 -7 0 9 15 -10 16 -20
1 -4 -8 -9 -7 -15 2 -7 11 -9 11 -9 -1 0 -13 -1 -13 -10 0 -8 12 -10 12 -10 1
0 -8 -7 -11 -20 -8 -11 3 -23 0 -27 -5 -4 -7 -1 -8 7 -3 9 5 11 4 6 -4 -6 -8
-12 -9 -20 -2 -9 8 -18 6 -32 -5 -18 -15 -18 -15 2 -5 15 7 21 7 21 -3 0 -15
-36 -14 -45 1 -12 18 -50 33 -68 26 -13 -5 -15 -3 -10 8 4 8 -2 3 -14 -11 -14
-16 -20 -19 -16 -8 3 10 0 20 -6 24 -7 5 -8 2 -3 -6 6 -10 4 -12 -9 -7 -12 5
-15 3 -9 -6 16 -25 12 -42 -5 -19 -16 21 -19 21 -37 7 -11 -9 -14 -13 -6 -9
10 5 12 3 7 -5 -6 -9 -11 -9 -24 1 -12 10 -14 10 -8 1 4 -7 2 -13 -3 -13 -6 0
-11 6 -11 13 0 8 -4 7 -10 -3 -5 -8 -10 -10 -10 -4 0 6 -7 11 -15 11 -9 0 -14
-6 -11 -12 2 -7 -5 -11 -17 -9 -12 1 -26 3 -30 3 -5 1 -6 5 -3 10 7 11 -21 8
-31 -4 -4 -4 -2 -5 6 0 10 5 12 4 7 -4 -4 -6 -11 -9 -16 -6 -4 3 -10 2 -13 -2
-2 -5 -2 -3 -1 4 2 7 -2 15 -8 19 -6 4 -8 3 -5 -3 4 -6 0 -14 -9 -17 -8 -3
-12 -2 -9 3 3 5 0 13 -6 17 -8 4 -9 3 -5 -4 6 -11 -28 -18 -57 -13 -5 1 -6 -3
-2 -9 3 -6 12 -7 18 -3 7 4 6 0 -2 -10 -15 -19 -26 -23 -15 -5 5 7 2 9 -9 5
-11 -4 -14 -2 -10 9 3 7 0 14 -6 14 -6 0 -11 -9 -11 -19 0 -11 -4 -23 -10 -26
-6 -4 -7 1 -3 11 5 13 3 16 -10 11 -9 -3 -19 -2 -23 4 -4 7 -12 5 -23 -5 -17
-15 -37 -16 -58 -3 -8 5 -13 3 -13 -5 0 -9 -3 -9 -10 2 -9 13 -10 13 -10 0 0
-13 -1 -13 -10 0 -9 13 -10 13 -10 0 0 -12 -2 -12 -9 -2 -6 11 -15 10 -44 -4
-21 -10 -33 -22 -30 -28 4 -6 1 -6 -8 1 -18 15 -48 11 -60 -8 -6 -10 -9 -10
-9 -1 0 6 -5 12 -11 12 -5 0 -7 -4 -4 -10 5 -9 -1 -12 -21 -9 -4 0 -11 -5 -16
-13 -8 -10 -9 -10 -5 2 2 8 11 14 18 12 8 -2 10 0 6 4 -4 4 -15 9 -23 10 -9 1
-13 0 -10 -3 3 -3 -2 -12 -12 -20 -9 -8 -11 -11 -3 -7 9 4 12 3 7 -4 -4 -8
-15 -8 -31 -2 -15 6 -27 6 -30 -1 -4 -5 -11 -6 -17 -3 -6 4 -14 0 -19 -7 -7
-12 -9 -11 -9 1 0 13 -1 13 -10 0 -8 -12 -10 -12 -10 -1 0 11 -3 11 -17 0 -14
-12 -16 -12 -9 1 4 9 1 8 -7 -2 -8 -10 -17 -18 -20 -18 -4 0 -4 8 -1 18 5 16
5 16 -8 0 -11 -12 -18 -14 -32 -6 -14 8 -17 8 -11 -2 5 -8 3 -11 -6 -8 -20 7
-51 -11 -43 -24 4 -7 3 -8 -5 -4 -6 4 -8 13 -5 19 4 7 4 9 -1 5 -4 -4 -15 -2
-24 5 -14 10 -14 10 -3 -5 9 -11 10 -18 2 -23 -5 -3 -10 0 -10 7 0 9 -3 9 -10
-2 -9 -14 -14 -7 -11 15 1 6 -6 1 -14 -9 -14 -18 -19 -15 -16 9 1 6 -6 1 -14
-9 -8 -11 -15 -14 -15 -8 0 7 -5 12 -11 12 -5 0 -8 -4 -4 -9 6 -10 -27 -7 -45
4 -6 3 -10 0 -11 -7 0 -7 -4 -4 -9 7 -5 11 -9 14 -9 6 -1 -11 -4 -11 -16 -1
-12 10 -15 9 -15 -6 0 -17 -1 -17 -13 0 -12 16 -15 17 -28 4 -12 -13 -16 -12
-31 6 -10 12 -18 17 -17 11 1 -5 1 -17 0 -25 -1 -13 -3 -13 -10 0 -6 8 -8 17
-6 20 2 3 -5 6 -15 6 -11 0 -22 -6 -24 -12 -3 -8 2 -11 15 -9 11 2 17 0 14 -5
-3 -4 -11 -7 -18 -6 -21 3 -38 17 -32 27 4 5 2 9 -3 9 -6 0 -13 -7 -16 -16 -4
-10 -2 -13 7 -8 6 4 9 3 4 -1 -9 -10 -57 -14 -51 -4 2 4 -3 10 -12 13 -8 3
-12 2 -9 -3 3 -5 1 -12 -5 -16 -5 -3 -10 -1 -10 5 0 7 -8 9 -19 5 -11 -3 -22
-1 -26 5 -3 6 -11 8 -16 4 -6 -3 -9 1 -7 9 2 9 -1 16 -7 16 -5 1 -10 -3 -10
-8 0 -5 -4 -13 -9 -18 -5 -5 -6 -3 -2 5 4 6 2 12 -3 12 -6 0 -10 6 -8 13 1 6
-4 11 -10 10 -7 -2 -13 2 -13 9 0 6 -7 3 -15 -8 -14 -19 -14 -19 -16 1 -1 17
-2 16 -9 -5 -8 -24 -8 -24 -9 -2 -1 18 -7 22 -37 22 -21 0 -33 4 -29 10 3 6 2
10 -4 10 -5 0 -11 -6 -14 -12 -4 -10 -7 -10 -18 0 -7 6 -17 12 -22 12 -4 0 -5
-6 -2 -12 4 -7 -6 1 -20 17 -15 17 -24 25 -21 18 4 -6 2 -15 -4 -18 -6 -4 -10
-3 -9 2 1 4 1 15 0 23 -1 13 -2 13 -11 0 -5 -8 -10 -10 -10 -3 0 13 -18 12
-39 -1 -10 -6 -12 -5 -7 2 5 8 -1 12 -14 12 -14 0 -19 -4 -14 -12 6 -9 3 -9
-9 0 -9 8 -22 10 -29 6 -10 -6 -11 -5 -1 7 10 12 8 17 -9 28 -11 7 -17 8 -13
2 3 -6 -1 -11 -9 -11 -9 0 -16 5 -16 12 0 9 -3 9 -12 0 -16 -16 -31 -15 -22 1
5 8 2 8 -9 -2 -15 -12 -17 -11 -18 5 0 18 -1 18 -9 -1 -8 -19 -9 -19 -9 -1 -1
14 -4 16 -15 7 -10 -9 -16 -8 -26 4 -7 9 -19 14 -26 11 -7 -3 -16 0 -20 6 -5
7 -2 8 7 3 8 -5 11 -4 6 1 -12 12 -30 12 -39 -1 -5 -6 -8 -6 -8 3 0 6 -5 12
-11 12 -5 0 -7 -5 -3 -12 4 -7 3 -8 -5 -4 -6 4 -8 12 -5 18 4 6 -1 8 -14 4
-14 -5 -25 0 -35 15 -14 19 -15 20 -20 2 -4 -15 -5 -14 -6 4 -1 19 -4 21 -32
13 -28 -8 -29 -7 -17 7 11 15 10 16 -9 11 -12 -3 -22 -3 -21 1 2 19 -4 24 -12
11 -9 -13 -13 -12 -26 5 -16 20 -16 19 -11 -5 6 -24 5 -24 -8 -6 -8 11 -15 14
-15 8 0 -10 -3 -10 -14 0 -8 7 -12 16 -9 21 2 4 0 7 -6 7 -5 0 -12 -6 -14 -12
-3 -7 -6 -3 -6 10 -1 12 -6 22 -12 22 -5 0 -7 -6 -3 -12 5 -9 2 -9 -9 1 -12
10 -17 10 -17 2 0 -8 -12 -4 -30 9 -17 12 -30 18 -30 14 0 -3 -6 -1 -14 6 -8
6 -12 19 -9 28 6 14 4 15 -8 5 -12 -10 -17 -8 -28 8 -7 12 -15 18 -18 15 -4
-3 -13 0 -21 7 -11 8 -14 8 -9 0 4 -6 3 -14 -3 -18 -5 -3 -10 2 -10 12 0 15
-2 16 -10 3 -7 -11 -10 -11 -10 -2 0 8 -5 10 -12 6 -9 -5 -8 -2 1 9 8 10 11
20 7 24 -3 3 -6 0 -6 -7 0 -9 -7 -7 -22 6 -19 15 -20 16 -9 2 21 -28 5 -21
-29 12 -24 23 -30 26 -31 12 0 -14 -2 -14 -9 3 -6 13 -9 15 -9 5 -1 -13 -3
-13 -10 0 -6 8 -7 19 -3 25 3 5 -3 3 -13 -5 -17 -13 -18 -13 -13 1 5 13 2 16
-14 11 -13 -3 -19 -1 -15 5 3 5 0 10 -8 10 -8 0 -12 -3 -10 -7 2 -4 -2 -7 -10
-7 -8 0 -12 4 -9 9 3 4 2 8 -3 9 -4 0 -18 2 -31 5 -13 2 -21 0 -17 -5 3 -5 1
-13 -5 -16 -6 -4 -9 -1 -8 7 2 7 -3 12 -10 10 -8 -1 -11 2 -7 8 3 6 11 7 17 4
6 -4 8 -2 5 4 -4 5 -16 8 -27 5 -12 -3 -20 0 -20 8 0 7 -3 9 -6 6 -4 -4 -1
-14 7 -23 13 -16 12 -16 -8 -3 -13 8 -23 16 -23 19 0 11 -75 8 -83 -3 -4 -7
-5 0 -3 15 3 20 1 25 -10 21 -8 -3 -22 1 -31 8 -12 10 -15 10 -9 2 4 -8 1 -13
-8 -13 -9 0 -16 7 -16 15 0 20 -17 19 -29 -2 -8 -15 -11 -15 -12 -3 -1 8 -1
18 -1 21 1 3 -6 6 -13 6 -11 0 -12 -4 -3 -14 8 -11 7 -12 -5 -7 -9 3 -19 15
-23 26 -5 17 -8 18 -16 7 -7 -11 -11 -11 -15 -2 -3 10 -8 9 -20 -3 -14 -14
-17 -13 -34 5 -12 12 -26 18 -36 14 -11 -5 -14 -3 -8 6 6 10 3 11 -13 2 -26
-14 -32 -14 -32 0 0 5 4 8 8 5 5 -3 9 2 9 11 0 12 -5 11 -19 -7 l-18 -22 -1
23 0 24 -9 -22 c-5 -13 -12 -23 -15 -23 -4 0 -4 4 -1 8 3 5 -8 9 -25 10 -17 0
-38 7 -47 14 -12 9 -14 10 -8 1 4 -7 2 -13 -3 -13 -6 0 -11 4 -11 8 0 5 -15 8
-34 8 -27 -1 -32 -4 -24 -14 8 -9 7 -11 -6 -6 -9 3 -16 11 -16 18 0 6 -5 4
-10 -4 -6 -10 -10 -11 -10 -2 0 6 -4 12 -10 12 -5 0 -7 -8 -3 -17 4 -13 0 -11
-11 4 -18 24 -46 21 -47 -6 0 -10 -4 -7 -10 9 -10 24 -11 25 -25 5 -8 -11 -12
-25 -9 -32 3 -10 0 -11 -15 -3 -16 9 -18 8 -13 -6 5 -14 3 -14 -16 -3 -11 8
-21 23 -21 34 0 17 -2 17 -10 5 -6 -9 -10 -10 -10 -3 0 6 -9 11 -20 10 -14 -1
-19 -6 -15 -16 5 -12 3 -12 -12 1 -19 17 -47 13 -37 -4 4 -7 2 -8 -4 -4 -7 4
-12 15 -13 24 0 12 -3 11 -9 -5 -10 -24 -22 -32 -18 -12 2 6 -5 13 -15 14 -15
3 -16 1 -6 -11 10 -12 9 -13 -5 -8 -9 3 -16 11 -16 18 0 6 -5 4 -11 -4 -8 -11
-12 -12 -16 -2 -2 6 -9 12 -14 12 -6 0 -7 -5 -3 -12 5 -8 2 -9 -9 -5 -10 3
-17 2 -17 -4 0 -6 -5 -7 -10 -4 -6 4 -7 11 -4 17 4 7 2 8 -5 4 -6 -4 -9 -12
-5 -17 6 -11 -13 -39 -27 -39 -5 0 -9 5 -9 11 0 5 4 8 9 4 5 -3 12 -1 15 4 7
11 -13 9 -32 -2 -6 -5 -12 -5 -12 0 0 4 -5 1 -10 -7 -9 -13 -10 -13 -10 0 0
13 -1 13 -10 0 -6 -10 -10 -11 -10 -2 0 6 -5 12 -11 12 -5 0 -7 -4 -4 -10 3
-5 0 -10 -9 -10 -8 0 -17 6 -19 13 -4 10 -6 10 -6 0 -1 -7 -6 -13 -12 -13 -6
0 -9 7 -6 14 4 11 1 13 -10 9 -9 -4 -14 -2 -11 3 3 5 -1 16 -10 24 -14 13 -15
12 -9 -3 8 -22 -2 -22 -19 1 -13 16 -14 16 -7 -3 6 -17 5 -18 -9 -7 -13 10
-18 10 -24 1 -4 -8 -3 -9 4 -5 7 4 12 2 12 -5 0 -7 -8 -9 -21 -6 -17 5 -18 3
-7 -10 12 -15 10 -15 -12 -3 -24 13 -24 12 -10 -5 14 -17 14 -18 -8 -6 -22 12
-23 11 -13 -8 8 -14 8 -22 -1 -27 -6 -4 -8 -3 -4 4 3 6 2 13 -3 16 -5 3 -12
-1 -15 -10 -5 -13 -9 -14 -21 -4 -13 10 -15 9 -15 -10 0 -15 -5 -20 -14 -17
-11 4 -13 1 -9 -11 6 -15 5 -15 -10 -3 -15 12 -17 12 -11 -4 6 -14 4 -16 -6
-10 -10 6 -12 4 -7 -8 4 -11 1 -17 -8 -17 -8 0 -16 -4 -16 -10 -1 -5 -2 -14
-3 -19 0 -5 -5 -13 -10 -18 -6 -5 -6 -2 -1 7 8 13 7 13 -8 1 -9 -7 -17 -22
-17 -33 0 -10 -4 -16 -10 -13 -14 9 -12 -8 2 -24 11 -11 9 -11 -9 -2 -31 16
-40 14 -17 -4 18 -14 18 -14 -6 -15 -18 0 -21 -3 -11 -9 9 -6 10 -14 5 -22
-12 -19 -14 -69 -3 -69 5 0 9 -5 9 -11 0 -5 -5 -7 -10 -4 -6 3 -10 1 -10 -4 0
-6 6 -11 13 -11 8 0 7 -4 -3 -10 -13 -9 -13 -11 -1 -19 12 -8 12 -12 2 -25
-11 -13 -11 -16 0 -16 11 0 11 -2 -1 -10 -12 -8 -12 -10 -1 -10 11 0 11 -3 1
-15 -10 -12 -10 -15 1 -15 12 0 12 -2 0 -9 -11 -7 -10 -11 5 -20 18 -10 18
-10 -1 -11 -17 0 -17 -2 -5 -10 13 -9 13 -10 0 -10 -12 0 -13 -2 -1 -9 7 -5
11 -15 9 -22 -3 -8 -1 -22 4 -32 6 -12 5 -19 -6 -23 -15 -6 -16 -20 -2 -43 6
-10 5 -12 -2 -7 -7 4 -12 2 -12 -3 0 -6 5 -11 10 -11 6 0 10 -5 10 -11 0 -5
-4 -8 -8 -5 -5 3 -9 -1 -9 -9 0 -8 4 -12 9 -9 4 3 8 -9 8 -25 0 -27 8 -36 32
-32 8 1 5 -20 -5 -36 -5 -8 -3 -13 5 -13 9 0 9 -3 -2 -10 -13 -9 -13 -10 0
-10 13 0 13 -1 0 -10 -8 -5 -10 -10 -4 -10 17 0 25 -28 12 -36 -6 -4 -8 -3 -4
4 3 6 3 13 -2 16 -4 2 -8 -11 -8 -29 0 -18 4 -31 8 -29 10 6 11 -10 1 -20 -10
-10 -12 -56 -1 -50 12 8 10 -10 -5 -25 -8 -10 -8 -12 0 -7 6 3 15 1 20 -6 11
-19 13 -39 2 -32 -5 3 -7 10 -4 15 10 15 -1 10 -15 -7 -11 -12 -11 -15 1 -12
8 2 13 -4 13 -15 -2 -17 -1 -17 15 -3 15 14 18 14 18 1 0 -8 -4 -12 -8 -9 -4
2 -7 -5 -6 -16 1 -11 5 -20 10 -20 4 0 5 -5 2 -10 -5 -8 -12 -7 -23 2 -16 12
-16 11 -2 -7 8 -11 22 -26 30 -33 13 -11 13 -11 -1 -7 -10 4 -16 0 -16 -9 0
-8 4 -13 9 -10 12 8 10 -10 -3 -23 -8 -8 -7 -13 2 -18 8 -5 10 -4 5 3 -4 7 -1
12 6 12 8 0 14 -9 14 -19 0 -11 -3 -18 -6 -16 -4 2 -7 -2 -7 -10 0 -8 5 -11
10 -8 6 4 8 -1 4 -11 -4 -10 -1 -19 8 -23 13 -5 13 -7 -2 -19 -17 -13 -17 -14
0 -8 10 4 17 3 16 -2 -1 -5 -1 -22 0 -39 1 -24 3 -27 11 -15 8 11 10 2 8 -33
-1 -32 3 -51 12 -57 11 -7 11 -11 1 -24 -11 -12 -11 -16 -1 -16 10 0 10 -3 0
-15 -7 -9 -10 -18 -6 -22 3 -3 6 -1 6 5 0 7 5 12 11 12 5 0 7 -4 4 -10 -3 -5
0 -10 7 -11 7 0 4 -4 -7 -9 -17 -7 -17 -9 -2 -9 20 -1 22 -12 5 -30 -11 -11
-11 -13 0 -7 6 4 12 2 12 -4 0 -6 5 -8 12 -4 7 4 8 3 4 -5 -4 -6 -11 -9 -16
-6 -5 3 -12 0 -16 -6 -4 -8 -3 -9 4 -5 7 4 12 2 12 -4 0 -6 5 -8 13 -4 8 6 8
3 -1 -9 -8 -9 -11 -25 -7 -38 5 -16 4 -19 -5 -14 -9 5 -11 4 -6 -4 4 -6 11 -9
16 -6 11 7 18 -16 15 -48 -2 -15 1 -27 6 -27 5 0 9 -5 9 -11 0 -5 -5 -7 -12
-3 -7 4 -8 3 -4 -5 4 -6 11 -9 16 -6 5 3 11 1 15 -5 3 -5 -1 -10 -9 -10 -9 0
-16 -5 -16 -11 0 -5 4 -8 9 -4 5 3 12 1 16 -5 3 -5 1 -10 -6 -10 -7 0 -5 -8 7
-22 10 -12 14 -18 8 -15 -7 4 -15 0 -18 -8 -3 -9 1 -18 8 -21 10 -4 13 -16 10
-37 -2 -23 -1 -28 6 -17 7 11 10 11 10 2 0 -8 5 -10 12 -6 10 6 10 4 2 -7 -15
-19 -14 -48 2 -42 9 3 11 -2 7 -16 -5 -19 3 -25 28 -23 3 1 6 -6 6 -13 0 -12
-3 -12 -15 -2 -13 10 -14 9 -4 -9 6 -12 8 -24 5 -28 -3 -3 -1 -6 5 -6 5 0 13
6 15 13 3 6 3 -3 0 -22 -5 -28 -3 -32 8 -26 12 7 12 6 1 -7 -9 -11 -10 -18 -2
-23 6 -3 7 -11 4 -17 -4 -7 -2 -8 5 -4 9 6 9 12 -1 24 -11 15 -11 15 4 4 18
-15 17 -49 -3 -44 -9 2 -10 0 -1 -11 7 -8 8 -18 4 -23 -4 -4 1 -2 11 5 9 8 20
11 24 7 3 -3 2 -6 -4 -6 -6 0 -14 -7 -17 -16 -6 -15 -4 -15 11 -3 11 9 14 10
9 1 -9 -14 2 -54 13 -48 4 3 8 -1 8 -9 0 -8 -4 -12 -8 -9 -4 2 -11 0 -14 -6
-4 -6 -1 -9 7 -8 7 2 13 -4 13 -12 1 -25 15 -39 33 -34 15 5 15 4 2 -6 -11 -9
-12 -13 -2 -17 6 -2 12 -9 12 -14 0 -6 -5 -7 -12 -3 -7 4 -8 3 -4 -5 4 -6 12
-9 17 -5 5 3 14 -8 20 -25 6 -17 15 -31 21 -31 5 0 6 5 2 12 -4 7 -3 8 5 4 9
-6 9 -11 0 -22 -9 -11 -7 -14 12 -14 19 0 21 -2 9 -10 -12 -7 -12 -10 -1 -10
7 0 11 -6 8 -14 -7 -16 11 -36 27 -30 6 2 11 -6 11 -21 0 -23 -1 -24 -12 -8
-7 9 -13 12 -13 6 0 -6 7 -16 15 -23 8 -7 12 -17 8 -24 -4 -6 1 -5 10 3 15 11
17 11 17 -2 0 -8 6 -18 13 -20 9 -4 9 -6 0 -6 -7 -1 -13 -6 -13 -12 0 -5 6 -7
13 -3 7 5 6 0 -3 -11 -9 -11 -10 -16 -2 -11 7 4 12 2 12 -8 0 -8 5 -18 12 -22
7 -5 9 -2 4 7 -4 8 0 5 8 -5 19 -24 21 -40 4 -30 -9 5 -9 3 1 -9 7 -9 18 -14
23 -11 6 4 6 -1 0 -13 -9 -15 -6 -25 12 -46 13 -15 27 -23 32 -19 4 4 2 -2 -6
-12 -14 -18 -13 -19 4 -13 16 6 17 5 6 -8 -10 -12 -10 -15 4 -15 9 0 16 -5 16
-11 0 -5 -6 -7 -12 -4 -7 4 -4 -2 8 -12 20 -18 24 -25 24 -44 0 -5 6 -7 13 -3
8 5 8 2 -2 -9 -11 -14 -11 -17 0 -17 11 0 11 -2 -1 -10 -13 -9 -13 -10 0 -11
8 -1 19 -1 23 0 5 1 6 -3 2 -8 -3 -6 -13 -8 -23 -5 -9 3 -6 -1 8 -9 14 -9 29
-13 34 -10 5 4 6 1 2 -6 -4 -6 -12 -9 -17 -6 -5 4 -9 1 -9 -4 0 -6 8 -11 18
-11 13 0 14 -2 3 -9 -11 -7 -11 -9 0 -14 12 -5 11 -8 -1 -17 -12 -9 -11 -10 8
-5 16 5 23 3 21 -7 -3 -23 1 -42 8 -35 8 9 33 -40 35 -69 1 -12 5 -22 8 -22
27 2 32 -3 19 -19 -7 -10 -10 -15 -5 -11 11 9 35 -14 28 -27 -11 -17 -11 -35
0 -42 6 -3 8 -2 5 4 -3 5 0 10 8 10 8 0 15 -4 15 -9 0 -4 -4 -8 -9 -8 -9 0
-23 -35 -23 -57 -1 -27 2 -34 12 -28 5 3 10 2 10 -3 0 -6 -8 -13 -17 -16 -12
-5 -14 -9 -5 -18 7 -7 12 -23 12 -36 0 -13 4 -20 10 -17 6 3 10 1 10 -4 0 -6
-6 -11 -12 -11 -7 -1 -2 -7 12 -15 14 -8 19 -14 13 -15 -16 0 -17 -27 -1 -32
7 -3 5 -7 -6 -11 -11 -5 -15 -3 -10 5 4 7 3 8 -5 4 -9 -6 -9 -11 1 -24 11 -13
11 -14 -1 -8 -10 7 -12 3 -6 -14 5 -15 4 -20 -4 -16 -6 4 -11 2 -11 -4 0 -6
-5 -8 -12 -4 -7 4 -8 3 -4 -5 4 -6 13 -8 19 -4 7 4 6 0 -2 -10 -7 -9 -18 -14
-25 -10 -6 4 -5 -1 3 -10 14 -17 26 -24 17 -9 -3 5 1 9 9 9 11 0 12 -4 4 -14
-6 -7 -15 -11 -19 -8 -5 3 -11 1 -15 -5 -3 -5 -1 -10 4 -10 6 0 11 -5 11 -10
0 -7 -8 -7 -22 1 -23 12 -23 12 -4 -9 17 -20 17 -22 2 -28 -12 -5 -14 -10 -6
-19 8 -10 8 -15 -1 -21 -8 -5 -9 -3 -4 6 6 9 4 11 -5 5 -10 -6 -9 -11 6 -23
18 -14 18 -14 0 -8 -14 5 -17 2 -12 -10 4 -11 2 -15 -8 -11 -11 4 -13 1 -9
-10 4 -10 2 -14 -4 -10 -5 3 -10 0 -10 -8 0 -8 4 -12 9 -9 4 3 8 1 8 -4 0 -6
-7 -13 -15 -16 -13 -5 -14 -10 -4 -28 6 -13 8 -20 4 -16 -4 4 -17 2 -29 -4
-11 -7 -25 -11 -30 -10 -5 2 -4 -4 4 -12 7 -9 9 -16 6 -16 -4 0 -2 -9 4 -20 9
-16 8 -19 -6 -13 -12 4 -15 3 -10 -5 4 -7 1 -12 -8 -12 -9 0 -16 -5 -16 -11 0
-5 4 -8 9 -4 5 3 13 1 16 -5 4 -6 1 -9 -7 -8 -7 2 -12 -2 -11 -9 2 -8 -4 -10
-14 -6 -11 4 -14 3 -9 -5 5 -8 1 -10 -10 -5 -13 5 -15 3 -9 -8 4 -8 5 -11 0
-7 -4 4 -15 2 -23 -5 -10 -8 -13 -8 -9 -1 4 7 0 14 -8 17 -8 4 -12 1 -9 -6 3
-8 -7 -12 -25 -12 -16 -1 -28 2 -26 5 2 4 -3 7 -11 7 -8 0 -13 -6 -10 -12 6
-16 -33 -12 -46 6 -8 12 -9 11 -5 -2 4 -12 -2 -16 -24 -16 -16 0 -25 5 -22 10
3 6 1 7 -6 3 -9 -6 -9 -11 -1 -21 10 -12 7 -13 -11 -10 -13 3 -35 -3 -49 -12
-21 -14 -23 -14 -12 -1 11 13 9 16 -13 16 -13 0 -22 -4 -20 -8 7 -11 -22 -6
-32 5 -4 4 -2 5 6 0 10 -6 12 -4 6 5 -6 10 -11 9 -22 -5 -8 -12 -13 -14 -13
-6 0 11 -3 11 -17 0 -11 -10 -14 -10 -9 -1 9 15 1 15 -25 2 -15 -9 -21 -7 -26
5 -4 13 -8 14 -14 4 -4 -7 -15 -14 -23 -15 -9 -1 -14 2 -10 7 3 5 0 9 -5 9 -6
0 -11 -5 -11 -11 0 -6 -7 -3 -16 5 -19 19 -31 21 -16 3 8 -10 6 -13 -8 -13
-10 0 -17 3 -15 7 3 3 -7 4 -20 1 -14 -2 -25 -11 -25 -19 0 -8 -5 -11 -10 -8
-6 4 -8 10 -5 15 3 5 1 11 -4 15 -6 3 -8 -4 -6 -16 3 -15 -2 -23 -15 -26 -11
-3 -20 -10 -20 -15 0 -5 5 -6 12 -2 7 4 8 3 4 -4 -4 -7 -15 -12 -24 -12 -14 0
-14 -2 -3 -9 8 -5 12 -18 8 -30 -3 -12 0 -24 5 -28 6 -3 8 -1 4 5 -3 6 -1 14
5 18 7 4 10 3 6 -2 -3 -5 1 -20 9 -34 7 -14 13 -19 14 -12 0 6 5 12 11 12 5 0
8 -4 5 -9 -3 -5 4 -11 15 -14 16 -4 19 -2 15 10 -6 14 -4 14 10 2 13 -11 18
-11 21 -2 4 10 8 9 20 -2 11 -12 19 -13 28 -5 9 8 17 7 28 -4 19 -19 31 -8 14
13 -10 14 -10 14 5 3 13 -10 17 -10 22 0 3 7 4 2 1 -12 -3 -14 -2 -19 1 -12 3
6 11 9 17 5 7 -4 8 0 3 13 -6 15 -5 17 5 7 7 -7 17 -13 22 -13 4 0 5 6 1 13
-6 9 -4 9 8 -1 13 -10 17 -10 21 0 4 10 6 10 6 1 1 -7 8 -13 17 -13 8 0 13 4
9 9 -3 5 0 13 6 17 8 4 9 3 5 -4 -4 -7 -2 -12 4 -12 6 0 8 -5 5 -10 -3 -5 -1
-10 4 -10 6 0 11 8 11 18 1 16 1 16 11 0 11 -20 29 -24 29 -7 0 5 -5 7 -12 3
-6 -4 -8 -3 -5 3 9 14 42 10 63 -8 16 -13 17 -12 10 5 -6 19 -6 19 11 3 12
-10 23 -13 32 -7 8 4 20 6 27 3 6 -2 15 1 19 6 3 6 11 9 16 6 5 -4 9 0 9 7 0
9 3 9 10 -2 11 -17 30 -20 48 -7 8 6 12 5 13 -4 0 -8 4 -5 9 6 8 19 9 19 9 1
1 -15 4 -16 16 -6 10 9 15 9 15 1 0 -6 3 -10 8 -10 18 3 26 -2 14 -10 -7 -4
-14 -17 -15 -29 -1 -17 -4 -19 -20 -10 -14 7 -17 7 -13 -1 7 -11 -5 -15 -31
-12 -7 1 -13 -5 -13 -13 0 -8 -8 -13 -17 -11 -10 1 -23 -7 -30 -19 -7 -11 -12
-15 -13 -8 0 6 -5 12 -11 12 -5 0 -7 -6 -3 -12 6 -10 4 -10 -7 -2 -24 19 -49
24 -43 10 3 -7 -2 -13 -10 -13 -8 0 -12 5 -9 11 3 6 0 5 -8 -1 -17 -17 -32
-17 -24 0 4 6 -2 2 -12 -9 -17 -19 -21 -20 -29 -6 -9 14 -14 13 -47 -7 -29
-18 -36 -19 -31 -7 5 12 2 15 -10 10 -9 -3 -13 -10 -10 -15 3 -5 -3 -6 -12 -2
-13 5 -15 3 -9 -8 6 -11 5 -12 -6 -1 -17 16 -42 16 -33 0 5 -10 4 -10 -6 -1
-11 10 -16 9 -27 -5 -11 -14 -12 -14 -8 -1 4 10 0 16 -10 16 -10 0 -14 -6 -10
-16 4 -11 0 -10 -15 4 -18 16 -20 17 -14 2 6 -16 -4 -22 -28 -18 -5 0 -8 -7
-9 -16 0 -11 -3 -13 -6 -5 -2 6 -14 12 -24 12 -13 0 -18 -4 -13 -12 4 -7 3 -8
-5 -4 -6 4 -18 3 -26 -4 -11 -9 -12 -7 -8 9 3 13 1 21 -6 21 -7 0 -10 -4 -6
-9 4 -8 -24 -24 -47 -26 -3 0 -10 -3 -14 -7 -4 -5 -12 -8 -18 -8 -5 0 -1 6 9
14 11 8 23 12 27 10 4 -2 9 -1 12 4 2 4 -6 8 -19 8 -13 0 -21 -4 -18 -10 4 -5
-1 -7 -9 -3 -12 4 -15 0 -13 -18 1 -14 -2 -22 -6 -19 -5 3 -9 12 -9 20 0 8 -4
14 -10 14 -5 0 -10 -7 -10 -16 0 -8 -4 -12 -10 -9 -5 3 -10 1 -10 -6 0 -7 -3
-9 -6 -6 -4 4 -1 13 6 22 11 13 10 14 -4 9 -9 -3 -16 -13 -16 -21 0 -8 -5 -11
-10 -8 -6 4 -8 11 -5 16 4 5 4 9 0 9 -3 0 -10 -10 -15 -22 -5 -14 -9 -17 -9
-8 -1 9 -10 16 -21 17 -11 1 -18 -2 -16 -6 3 -4 -4 -8 -15 -8 -12 -1 -17 3
-13 10 3 7 -1 4 -9 -5 -11 -14 -16 -15 -26 -5 -10 9 -11 8 -5 -7 6 -17 5 -17
-17 -6 -22 12 -23 12 -10 -4 8 -9 11 -19 7 -23 -3 -3 -6 -1 -6 6 0 8 -7 10
-21 6 -15 -5 -19 -4 -15 4 14 22 -6 11 -26 -15 -11 -14 -23 -23 -26 -19 -3 3
2 11 12 18 16 12 16 13 -3 13 -11 0 -17 -4 -15 -8 3 -4 1 -8 -5 -8 -5 0 -17
-3 -27 -7 -10 -4 -15 -2 -11 4 3 5 0 10 -7 10 -8 0 -12 -7 -8 -15 4 -11 1 -13
-8 -7 -10 6 -12 4 -6 -10 6 -15 4 -16 -10 -4 -14 11 -15 10 -12 -7 2 -12 -2
-18 -11 -16 -9 2 -11 -3 -7 -14 5 -14 4 -15 -8 -5 -20 17 -29 -25 -9 -44 8 -8
10 -15 4 -15 -19 0 -12 -25 10 -38 12 -8 19 -10 16 -5 -3 5 3 14 13 21 14 9
21 8 31 -4 12 -14 14 -14 26 2 12 17 13 16 13 -4 0 -12 5 -22 11 -22 5 0 7 5
4 10 -3 6 1 10 10 10 9 0 13 -5 9 -11 -4 -7 6 -10 30 -8 24 2 41 -2 47 -11 9
-12 10 -12 5 3 -5 15 -2 16 14 7 15 -8 18 -7 14 3 -6 17 25 19 45 3 12 -9 14
-8 9 5 -4 9 -1 16 7 16 6 0 12 -9 11 -20 -1 -12 6 -21 16 -23 12 -1 15 3 11
14 -4 12 3 9 23 -8 15 -14 23 -18 16 -9 -10 13 -8 15 11 14 15 -1 21 -8 19
-20 -2 -9 1 -14 7 -11 5 3 16 -1 24 -9 9 -9 17 -11 19 -4 2 5 14 10 28 11 14
1 31 6 39 12 11 9 13 8 9 -4 -4 -11 2 -15 28 -15 18 0 30 3 28 7 -3 5 -11 5
-17 1 -7 -4 -7 -1 1 9 14 17 47 14 36 -3 -3 -5 2 -9 11 -9 9 0 13 4 10 10 -3
6 1 7 10 4 11 -5 14 -2 9 12 -4 14 -3 16 4 5 6 -8 15 -10 22 -6 9 5 11 4 6 -3
-5 -8 -1 -10 9 -5 10 3 21 0 27 -8 6 -10 7 -6 2 11 l-7 25 21 -25 21 -25 -5
25 -5 25 15 -25 c8 -14 15 -19 16 -11 0 9 8 12 25 9 14 -3 28 -1 32 5 3 6 1 7
-5 3 -7 -4 -12 -3 -12 3 0 10 39 9 57 -2 6 -4 14 -3 18 3 10 16 25 12 26 -7 0
-15 2 -15 9 2 5 11 9 14 9 7 1 -8 6 -10 13 -6 21 13 59 14 51 1 -4 -7 2 -5 12
3 10 8 16 10 12 3 -4 -6 -1 -14 5 -16 10 -4 10 -6 0 -6 -8 -1 -10 -6 -6 -13 5
-7 9 -21 9 -30 1 -14 -1 -15 -12 -6 -11 8 -12 7 -7 -6 4 -10 1 -16 -7 -16 -7
0 -4 -10 10 -24 17 -18 19 -26 10 -31 -7 -5 -10 -4 -6 2 4 6 0 13 -7 16 -10 4
-13 0 -11 -14 2 -10 6 -23 9 -28 4 -5 -4 -7 -16 -4 -20 4 -21 3 -6 -7 13 -8
15 -16 8 -35 -6 -16 -6 -27 2 -31 7 -5 8 -3 3 6 -6 9 -4 11 4 5 8 -5 9 -11 3
-17 -13 -13 -3 -47 11 -44 7 2 9 1 4 -1 -4 -3 -4 -10 -1 -15 4 -6 2 -8 -4 -4
-6 3 -13 2 -17 -4 -3 -5 -1 -10 4 -10 6 0 11 -5 11 -11 0 -5 -4 -8 -9 -5 -5 4
-8 -2 -6 -11 1 -10 7 -17 13 -16 6 2 3 -10 -6 -26 -9 -16 -19 -28 -23 -25 -4
2 -10 -4 -13 -13 -6 -15 -8 -15 -16 -3 -8 12 -10 12 -10 1 0 -11 -3 -11 -17 0
-15 12 -16 12 -10 -3 4 -13 2 -15 -10 -11 -12 5 -14 3 -8 -7 5 -9 4 -11 -3 -6
-8 4 -12 0 -12 -11 0 -15 -2 -16 -10 -3 -9 13 -12 13 -21 -3 -8 -13 -15 -15
-28 -7 -16 8 -18 5 -15 -17 2 -18 -1 -22 -8 -15 -8 8 -15 6 -27 -6 -9 -10 -13
-13 -8 -8 14 20 7 25 -12 9 -11 -9 -18 -20 -15 -25 3 -4 -3 -5 -12 -1 -13 5
-15 3 -9 -7 6 -10 4 -11 -6 -4 -21 13 -39 14 -39 2 0 -6 -6 -6 -15 2 -12 10
-16 8 -24 -11 -5 -13 -10 -19 -10 -13 -1 6 -8 11 -16 11 -11 0 -12 -4 -4 -13
8 -9 5 -11 -12 -7 -15 4 -26 0 -35 -12 -7 -9 -19 -15 -26 -12 -9 3 -15 -3 -16
-16 -1 -17 1 -19 8 -7 6 9 10 10 10 3 0 -6 -4 -15 -10 -18 -5 -3 -9 -17 -8
-30 1 -13 6 -21 10 -19 4 3 4 12 1 21 -6 15 -5 16 9 3 9 -8 14 -18 11 -22 -2
-5 1 -8 7 -8 6 0 8 -5 4 -12 -5 -7 -3 -8 7 -2 21 13 39 14 39 1 0 -7 5 -5 10
3 8 13 10 13 10 1 0 -11 4 -9 15 5 15 19 15 19 8 -1 -6 -20 -6 -20 15 -1 20
17 22 18 28 2 5 -14 9 -15 15 -4 7 10 9 8 9 -6 0 -20 0 -20 16 0 15 18 15 18
10 0 -6 -16 -4 -17 9 -6 8 7 15 9 15 5 0 -5 9 0 20 10 18 17 20 17 14 2 -7
-19 6 -23 23 -6 9 9 11 8 10 -2 -2 -8 -6 -19 -10 -26 -4 -6 -2 -15 4 -19 8 -5
9 -3 4 6 -6 10 -4 12 9 7 10 -4 20 -7 22 -7 3 0 3 -3 1 -7 -3 -5 5 -8 18 -8
13 0 21 3 18 8 -2 4 0 7 6 7 5 0 14 -7 19 -16 8 -15 10 -15 15 0 5 11 3 15 -5
10 -7 -5 -8 -3 -4 5 6 9 12 9 25 -3 13 -12 20 -13 29 -4 7 7 12 8 12 3 0 -6 5
-3 11 5 9 12 10 10 6 -8 -5 -20 -3 -21 9 -11 12 10 15 10 12 -2 -2 -8 -7 -17
-13 -21 -6 -5 -4 -8 4 -8 11 0 10 -3 -3 -13 -16 -12 -16 -14 -2 -26 9 -7 13
-18 9 -25 -13 -21 -11 -57 3 -52 7 3 16 0 20 -6 4 -6 3 -8 -3 -5 -6 4 -13 -2
-16 -14 -5 -17 -3 -18 9 -8 12 10 15 10 12 -2 -2 -8 3 -13 11 -11 12 3 12 0 1
-12 -14 -18 -25 -22 -15 -6 12 19 -7 10 -24 -12 -14 -16 -20 -18 -26 -8 -5 8
-4 11 3 6 6 -3 13 -3 16 2 2 4 -8 8 -24 7 -15 0 -26 -4 -22 -9 3 -5 -2 -7 -11
-3 -10 4 -17 1 -17 -6 0 -8 -3 -7 -9 2 -11 17 -41 24 -41 10 0 -5 5 -9 12 -9
6 0 9 -2 6 -5 -7 -7 -39 5 -34 14 2 3 -11 6 -30 6 -26 1 -33 -3 -29 -14 5 -12
3 -12 -11 0 -9 7 -23 14 -33 15 -13 2 -12 0 3 -12 11 -8 15 -14 9 -14 -7 0
-19 7 -27 16 -9 8 -16 11 -16 5 0 -5 -9 -9 -19 -8 -12 1 -17 6 -13 16 3 9 1
12 -6 7 -7 -4 -12 -1 -12 9 0 9 -4 13 -10 10 -14 -9 -13 8 2 23 7 7 8 12 2 12
-5 0 -15 -5 -22 -12 -7 -7 -12 -9 -12 -6 0 4 7 14 16 22 14 15 13 16 -6 16
-14 0 -19 4 -14 12 5 8 2 9 -9 5 -9 -3 -19 -1 -23 5 -4 6 -3 8 4 4 6 -3 13 -3
16 2 8 13 -28 11 -36 -2 -6 -8 -8 -8 -8 0 0 7 -6 14 -14 17 -10 4 -13 0 -11
-14 4 -17 2 -19 -11 -8 -12 10 -13 9 -8 -5 4 -12 1 -16 -14 -16 -21 0 -35 -14
-38 -38 -1 -6 1 -10 6 -7 7 4 24 -50 21 -67 0 -4 7 -4 17 -1 15 6 15 5 2 -11
-13 -16 -12 -20 5 -33 15 -12 16 -14 3 -10 -12 4 -16 1 -15 -14 1 -10 8 -19
16 -19 11 0 10 -4 -5 -16 -10 -8 -13 -12 -5 -8 11 5 13 2 9 -14 -4 -15 0 -25
10 -32 15 -8 15 -9 -2 -10 -12 0 -16 -5 -12 -15 3 -8 1 -15 -5 -15 -5 0 -14
-11 -19 -25 -5 -14 -16 -25 -25 -25 -9 0 -15 -9 -15 -22 0 -19 -2 -20 -10 -8
-9 13 -14 7 -11 -12 0 -5 -3 -8 -8 -8 -6 0 -8 -9 -6 -19 2 -13 -1 -18 -10 -15
-16 6 -30 -12 -16 -21 12 -7 -7 -55 -21 -55 -5 0 -1 11 8 25 15 23 15 25 0 19
-9 -3 -14 -10 -11 -14 3 -5 1 -11 -4 -15 -6 -3 -8 -12 -4 -20 3 -9 -1 -23 -8
-33 -12 -15 -11 -15 8 1 16 14 23 15 29 6 4 -7 3 -10 -3 -6 -6 4 -16 -6 -21
-23 -8 -21 -8 -32 0 -36 7 -5 8 -2 3 6 -6 9 -4 11 4 5 9 -5 10 -10 2 -18 -14
-14 6 -50 22 -40 7 4 6 -1 -2 -11 -13 -15 -13 -19 0 -27 11 -7 10 -9 -6 -9
-18 -1 -17 -2 4 -11 23 -9 24 -10 5 -24 -13 -11 -15 -15 -4 -13 10 2 14 -4 12
-21 -2 -19 0 -21 11 -12 18 14 30 2 16 -16 -9 -10 -8 -13 2 -14 8 0 5 -4 -6
-9 -15 -7 -16 -9 -4 -9 9 -1 23 -9 30 -18 13 -16 12 -17 -3 -5 -13 11 -18 11
-24 0 -4 -7 -4 -10 1 -6 4 4 14 0 22 -8 8 -8 18 -12 22 -10 4 3 8 -1 8 -9 0
-11 -4 -12 -14 -3 -11 8 -12 7 -7 -6 3 -9 11 -16 16 -16 6 0 4 -8 -3 -17 -12
-15 -12 -16 3 -10 12 4 15 2 11 -9 -3 -8 2 -21 12 -28 10 -7 15 -18 11 -24 -4
-7 -2 -12 4 -12 6 0 10 -8 8 -18 -1 -9 2 -23 6 -31 7 -11 5 -13 -7 -8 -12 4
-17 1 -17 -11 0 -14 -2 -15 -9 -2 -6 8 -7 18 -4 24 3 5 1 6 -6 2 -6 -4 -8 -12
-5 -18 4 -6 2 -8 -4 -4 -5 3 -13 0 -16 -6 -3 -7 -4 -2 -1 12 3 14 2 19 -1 12
-3 -6 -10 -9 -15 -6 -6 3 -17 0 -25 -7 -18 -15 -47 -21 -39 -9 3 5 1 12 -5 15
-6 4 -10 3 -9 -2 4 -20 -2 -27 -12 -13 -9 12 -10 11 -6 -6 3 -15 -1 -21 -12
-21 -34 0 -42 -3 -35 -14 3 -6 -5 -3 -20 6 -24 16 -26 16 -20 1 5 -12 2 -15
-12 -9 -11 4 -15 3 -11 -4 4 -6 1 -14 -5 -16 -10 -4 -10 -8 1 -15 11 -8 8 -10
-12 -9 -14 1 -22 7 -19 12 3 6 -1 4 -10 -3 -13 -10 -17 -10 -21 0 -4 10 -6 10
-6 1 -1 -7 -10 -13 -22 -13 -11 0 -17 -5 -14 -10 4 -6 11 -7 17 -4 7 4 8 2 4
-4 -5 -8 -13 -9 -24 -3 -13 7 -25 4 -42 -11 -21 -17 -22 -19 -5 -14 18 5 18 4
-2 -10 -19 -14 -21 -19 -11 -38 10 -19 10 -20 -5 -7 -15 11 -17 11 -17 -2 0
-9 -4 -19 -10 -22 -6 -4 -7 1 -3 12 6 15 5 16 -9 3 -11 -10 -13 -19 -7 -27 7
-7 6 -14 -2 -19 -8 -4 -9 -3 -5 4 4 7 3 12 -3 12 -5 0 -13 -4 -16 -10 -3 -5
-11 -10 -16 -10 -6 0 -7 5 -3 12 4 7 3 8 -5 4 -6 -4 -8 -12 -5 -18 5 -8 1 -9
-11 -4 -16 6 -16 4 -4 -11 7 -10 9 -15 5 -11 -5 4 -16 2 -24 -5 -9 -6 -13 -7
-9 -1 4 7 -7 11 -33 10 -27 -1 -39 -5 -36 -13 3 -7 -1 -10 -10 -6 -7 3 -14 9
-14 14 0 5 -5 9 -11 9 -5 0 -7 -4 -4 -10 3 -5 1 -10 -5 -10 -6 0 -8 -5 -4 -12
4 -7 3 -8 -5 -4 -6 4 -9 11 -7 15 3 4 -4 8 -15 8 -10 1 -19 -2 -19 -7 0 -5
-12 -7 -27 -4 l-28 4 25 -16 c14 -8 17 -13 8 -10 -9 3 -19 -2 -22 -10 -4 -10
-1 -13 7 -9 6 4 3 -1 -7 -9 -11 -9 -16 -16 -10 -16 5 0 3 -4 -4 -9 -11 -7 -10
-9 3 -14 9 -4 13 -3 10 2 -3 5 -1 13 5 16 6 4 10 3 9 -2 -1 -4 -1 -18 0 -31 1
-20 3 -21 24 -11 19 11 20 10 10 -2 -10 -12 -8 -15 8 -16 11 -1 17 2 15 6 -3
4 12 7 32 7 26 -1 36 3 34 12 -1 8 2 11 8 7 6 -3 8 -10 5 -15 -3 -4 2 -13 9
-20 12 -9 17 -7 26 10 10 19 13 20 28 7 20 -17 42 -12 42 11 0 13 2 14 9 3 6
-9 11 -10 15 -3 8 14 36 4 33 -11 -1 -7 3 -11 10 -10 6 1 10 -5 8 -15 -1 -9 2
-23 8 -30 7 -9 6 -11 -7 -6 -18 7 -21 -3 -6 -26 5 -9 5 -19 -1 -27 -8 -9 -6
-11 10 -8 12 2 19 0 16 -6 -4 -5 -13 -9 -21 -9 -8 0 -13 -4 -9 -10 3 -5 13 -7
23 -4 9 3 6 -2 -8 -10 -16 -10 -19 -15 -10 -16 13 0 13 -1 0 -10 -13 -9 -13
-10 0 -10 13 0 13 -1 0 -10 -12 -8 -12 -10 -1 -10 11 0 11 -3 1 -15 -10 -12
-10 -18 0 -30 10 -12 10 -15 -1 -15 -11 0 -11 -2 1 -9 8 -6 18 -7 24 -4 5 3 6
1 2 -6 -4 -6 -12 -8 -18 -5 -6 4 -6 -2 1 -15 7 -11 14 -21 17 -21 3 0 2 4 -1
10 -3 6 1 7 10 3 13 -5 14 -7 3 -14 -11 -7 -10 -11 2 -19 13 -8 12 -10 -5 -11
-15 0 -16 -2 -5 -7 17 -8 27 -52 12 -52 -6 0 3 -14 19 -31 16 -17 28 -34 28
-37 -3 -21 3 -31 22 -37 17 -6 18 -9 7 -23 -10 -12 -10 -14 -1 -8 8 4 13 2 13
-4 0 -6 4 -8 10 -5 5 3 10 -1 10 -10 0 -10 -5 -14 -12 -10 -7 4 -3 -2 10 -13
12 -11 22 -27 22 -36 0 -9 5 -16 11 -16 5 0 7 -6 3 -12 -5 -8 -2 -8 10 1 9 8
16 10 15 5 -4 -25 2 -36 20 -31 12 3 18 -1 17 -12 -1 -11 6 -15 24 -13 14 1
20 -1 14 -5 -9 -6 -8 -12 2 -21 11 -10 14 -10 14 0 0 9 3 9 9 -2 6 -8 7 -18 4
-24 -3 -5 -1 -6 6 -2 6 4 8 12 5 18 -4 6 -2 8 4 4 5 -3 12 -3 15 1 2 5 3 3 1
-3 -1 -6 2 -17 7 -25 6 -9 9 -10 9 -2 0 7 7 10 16 6 9 -3 20 0 26 8 6 10 7 6
2 -11 -7 -25 -6 -25 14 -7 15 14 22 15 28 6 4 -7 3 -10 -3 -6 -5 3 -10 0 -10
-8 0 -11 4 -12 14 -4 7 6 13 8 13 4 0 -5 10 0 21 11 l22 19 -13 -25 c-12 -23
-12 -24 3 -11 10 7 17 11 17 7 0 -3 11 -1 24 4 16 6 28 5 36 -3 10 -9 11 -9 6
1 -9 16 6 16 23 -1 11 -9 13 -9 7 1 -8 13 6 17 18 5 4 -4 21 -8 37 -9 22 -1
29 3 27 15 -2 9 3 15 10 13 6 -1 12 3 12 9 0 6 7 8 16 5 12 -5 15 -2 10 11 -6
14 -4 14 14 -2 12 -11 21 -15 20 -10 -2 6 -2 19 -1 30 1 15 3 17 10 7 6 -11
10 -10 15 4 6 16 8 16 17 4 7 -12 10 -11 15 7 3 12 13 24 21 27 9 4 12 2 7 -7
-4 -6 8 3 26 21 19 17 39 32 44 32 6 0 4 5 -4 10 -12 8 -11 10 8 10 14 0 22 6
22 18 0 14 2 15 10 2 7 -12 10 -12 10 -1 0 7 6 11 14 8 8 -3 13 1 12 11 -1 10
7 17 19 17 13 0 20 6 19 17 -1 15 1 15 21 2 18 -12 24 -12 28 -2 3 8 6 5 7 -7
l1 -20 9 20 c5 11 9 15 9 8 1 -7 13 -24 27 -39 15 -14 24 -19 21 -10 -12 30
10 16 29 -19 10 -19 23 -35 27 -35 5 0 3 8 -4 18 -13 15 -12 16 4 3 9 -7 17
-20 17 -27 0 -8 4 -14 9 -14 5 0 11 -7 14 -14 4 -9 1 -14 -6 -12 -7 1 -9 1 -4
-1 4 -3 5 -9 2 -14 -4 -5 1 -6 9 -3 9 3 23 -1 32 -10 8 -9 20 -13 26 -10 7 4
8 2 4 -4 -4 -7 -2 -12 3 -12 6 0 11 -10 11 -21 0 -18 2 -19 15 -9 13 11 14 10
9 -5 -6 -14 -4 -16 7 -10 12 8 12 6 0 -8 -11 -14 -11 -20 -1 -32 7 -8 18 -15
26 -15 7 0 16 -5 20 -12 4 -7 3 -8 -4 -4 -8 5 -10 2 -6 -8 3 -9 10 -14 15 -11
11 7 32 -32 24 -45 -3 -6 -1 -10 4 -10 6 0 11 -8 11 -17 0 -15 2 -16 10 -3 7
11 10 11 10 2 0 -8 5 -10 13 -6 9 6 9 5 0 -8 -15 -18 -7 -29 15 -21 10 4 13 2
8 -5 -4 -7 -1 -12 8 -12 8 0 18 -4 21 -10 4 -6 -1 -7 -12 -4 -15 6 -15 4 2 -9
11 -9 27 -17 37 -17 12 0 15 -6 10 -22 -3 -14 -2 -19 6 -14 7 4 12 1 12 -7 0
-8 7 -18 16 -21 13 -5 14 -9 4 -21 -10 -12 -10 -15 3 -15 8 0 21 -8 28 -17 13
-16 12 -17 -4 -4 -15 12 -17 12 -11 -3 3 -9 13 -16 21 -16 10 0 13 -6 9 -16
-4 -11 -2 -15 8 -11 8 3 17 -1 20 -9 3 -8 2 -12 -4 -9 -5 3 -8 -3 -7 -14 1
-15 4 -17 14 -9 11 8 12 7 7 -7 -6 -14 -4 -16 6 -10 10 6 12 3 8 -13 -4 -16
-2 -19 10 -15 11 5 14 2 9 -10 -4 -12 -2 -14 10 -10 10 4 14 2 9 -5 -3 -6 -1
-14 5 -17 5 -4 8 -14 5 -22 -3 -8 -1 -11 4 -8 6 3 10 1 10 -5 0 -6 5 -8 12 -4
8 5 9 2 4 -11 -5 -15 -4 -16 9 -5 13 11 16 11 13 -1 -2 -8 -7 -17 -13 -21 -5
-4 0 -8 13 -8 13 0 21 -4 17 -9 -3 -6 7 -21 21 -34 18 -17 25 -31 20 -43 -5
-14 -4 -15 8 -5 11 9 14 8 12 -6 0 -10 -5 -21 -11 -25 -6 -5 -5 -8 3 -8 6 0
12 -5 12 -11 0 -20 51 -55 73 -50 5 1 6 -3 2 -9 -5 -8 -11 -7 -21 1 -12 10
-13 9 -8 -5 6 -15 18 -20 37 -17 5 1 6 -3 2 -9 -5 -9 7 -14 27 -11 4 0 10 -8
13 -19 4 -11 14 -20 23 -20 13 0 13 -2 -4 -15 -13 -11 -14 -14 -4 -13 9 2 14
-3 12 -15 -2 -10 3 -17 13 -17 8 0 15 -5 15 -11 0 -5 -5 -7 -10 -4 -6 4 -6 -4
1 -19 6 -13 20 -27 31 -29 11 -3 17 -10 13 -16 -3 -6 -1 -11 5 -11 6 0 9 -4 6
-9 -4 -5 4 -7 16 -3 20 5 21 3 10 -10 -9 -11 -10 -18 -2 -23 6 -3 7 -11 4 -17
-4 -6 -2 -8 3 -5 6 4 14 0 17 -9 9 -23 8 -26 -6 -19 -7 4 -5 0 4 -8 10 -8 14
-18 10 -23 -4 -4 1 -2 10 5 15 11 17 10 13 -9 -3 -18 -2 -20 10 -10 12 10 13
8 10 -12 -4 -21 -3 -22 9 -5 13 16 14 15 11 -17 -3 -28 0 -36 13 -36 13 0 12
-2 -4 -15 -18 -14 -18 -14 4 -8 18 4 22 1 22 -16 0 -11 6 -21 13 -21 8 0 7 -4
-3 -10 -13 -9 -13 -10 0 -10 13 0 13 -1 0 -10 -8 -5 -10 -10 -4 -10 7 0 15 -7
18 -16 5 -12 3 -14 -7 -8 -7 5 -6 2 3 -6 14 -13 32 -46 28 -53 -1 -1 4 -12 11
-24 10 -20 9 -22 -6 -16 -15 5 -16 3 -6 -8 15 -16 17 -33 3 -24 -6 4 -7 -1 -3
-11 5 -14 8 -13 20 7 8 13 12 17 10 9 -2 -8 3 -24 12 -34 9 -11 10 -16 4 -12
-7 4 -13 2 -13 -3 0 -6 5 -11 10 -11 6 0 10 -7 10 -15 0 -8 5 -15 10 -15 6 0
10 -5 10 -11 0 -5 -5 -7 -12 -3 -7 4 -8 3 -4 -5 6 -9 11 -9 22 0 12 10 13 9 9
-4 -4 -8 -1 -18 4 -22 6 -3 9 -11 5 -16 -3 -5 -10 -7 -15 -4 -5 4 -9 1 -9 -4
0 -6 4 -11 9 -11 5 0 11 -7 14 -14 4 -10 1 -13 -7 -10 -7 3 -13 -2 -13 -10 0
-8 4 -13 9 -10 4 3 8 -2 8 -11 0 -9 -4 -13 -10 -10 -5 3 -10 1 -10 -4 0 -6 3
-11 8 -11 4 0 13 -9 20 -21 12 -19 11 -19 -8 -9 -27 14 -26 3 2 -21 15 -12 17
-17 7 -13 -23 7 -32 -11 -14 -26 14 -11 14 -15 -2 -34 -13 -15 -14 -17 -2 -8
16 12 29 7 29 -10 0 -5 -4 -7 -9 -3 -5 3 -13 1 -16 -5 -4 -6 -1 -9 6 -8 8 2
14 -8 14 -25 1 -16 7 -32 15 -38 13 -7 13 -9 0 -9 -13 0 -13 -1 0 -10 12 -7
12 -10 1 -10 -7 0 -11 -6 -7 -15 3 -8 1 -15 -4 -15 -5 0 -6 -7 -3 -17 4 -11 3
-14 -5 -9 -8 5 -12 -3 -12 -24 0 -22 -4 -29 -12 -24 -9 5 -9 2 1 -9 12 -15 11
-17 -4 -17 -15 0 -16 -2 -4 -17 10 -11 10 -14 2 -9 -14 8 -15 3 -15 -61 0 -24
-4 -40 -9 -38 -4 3 -10 1 -14 -5 -3 -5 -2 -10 3 -10 6 0 13 -7 16 -16 5 -14 4
-15 -9 -4 -14 11 -14 10 -6 -13 7 -17 7 -28 0 -32 -5 -4 -7 -10 -4 -15 3 -5
-4 -7 -16 -5 -17 3 -19 1 -9 -9 8 -11 5 -20 -15 -41 -14 -16 -26 -34 -26 -41
-3 -34 -6 -39 -18 -36 -7 1 -10 -2 -6 -8 3 -6 11 -8 16 -5 5 4 9 1 9 -4 0 -6
-6 -11 -14 -11 -8 0 -18 -5 -22 -12 -5 -7 -3 -8 5 -4 8 6 11 2 9 -10 -2 -12 2
-18 10 -16 8 1 11 -2 7 -7 -3 -6 -11 -8 -19 -5 -7 3 -13 -1 -14 -8 -6 -52 -19
-89 -36 -100 -7 -5 -6 -8 4 -8 8 -1 4 -6 -10 -11 -20 -8 -22 -12 -10 -19 13
-9 13 -10 0 -10 -13 0 -13 -1 0 -10 12 -8 12 -10 1 -10 -11 0 -11 -3 -1 -15
11 -13 10 -14 -5 -9 -14 6 -16 4 -10 -6 6 -10 4 -12 -8 -7 -11 4 -14 2 -10 -9
3 -7 -1 -14 -8 -14 -7 0 -9 -3 -6 -6 4 -4 13 -1 22 6 24 20 17 0 -8 -22 -12
-11 -15 -16 -7 -12 13 7 13 5 1 -9 -7 -9 -10 -17 -5 -17 4 0 -1 -7 -12 -16
-18 -14 -18 -15 6 -9 23 6 24 5 5 -7 -11 -7 -24 -13 -29 -13 -5 0 -11 -11 -13
-25 -2 -18 -1 -21 6 -10 5 8 7 18 4 24 -3 5 -1 6 5 2 14 -8 -2 -46 -19 -46 -6
0 -7 -5 -3 -12 5 -8 2 -9 -12 -4 -10 4 -15 4 -11 0 4 -4 1 -14 -6 -22 -10 -13
-9 -14 3 -7 12 6 13 5 3 -6 -15 -15 -17 -33 -4 -25 11 7 8 -8 -7 -47 -6 -15
-15 -27 -19 -26 -20 3 -24 -2 -12 -17 11 -14 9 -19 -11 -36 -14 -11 -19 -17
-12 -13 14 7 12 -29 -3 -42 -4 -5 -5 -3 -1 4 3 6 3 14 -2 17 -5 3 -9 0 -10 -7
-1 -20 -10 -56 -17 -67 -4 -6 1 -7 12 -3 14 5 13 1 -5 -17 -19 -18 -21 -24
-10 -31 13 -8 11 -10 -14 -13 -13 -1 -20 -36 -7 -36 5 0 9 -5 9 -11 0 -5 -6
-7 -12 -3 -8 5 -7 0 2 -11 13 -17 13 -18 0 -13 -12 5 -16 -1 -14 -22 1 -20 -2
-27 -11 -24 -7 3 -16 0 -21 -7 -4 -7 -3 -10 4 -5 6 3 13 2 17 -4 3 -5 -2 -10
-12 -11 -10 0 -13 -3 -5 -6 6 -2 12 -9 12 -14 0 -6 -6 -7 -12 -3 -9 5 -9 2 1
-9 16 -20 2 -23 -19 -5 -12 11 -12 10 -2 -3 6 -9 8 -20 4 -24 -4 -5 -2 -5 4
-2 6 3 11 0 11 -8 0 -8 -5 -13 -11 -12 -6 1 -10 -6 -9 -16 0 -11 -4 -16 -12
-13 -8 3 -12 -2 -10 -12 2 -9 4 -17 5 -17 1 0 3 -12 4 -26 2 -23 -1 -27 -23
-24 -20 2 -22 1 -10 -9 16 -12 17 -21 5 -48 -5 -10 -13 -15 -20 -11 -6 4 -4
-2 4 -12 14 -17 13 -18 -2 -12 -13 4 -16 2 -11 -11 3 -9 10 -22 15 -29 7 -8 3
-10 -14 -6 l-23 6 20 -19 c12 -10 15 -15 8 -10 -7 5 -13 5 -14 0 0 -5 -2 -20
-5 -33 -4 -20 -2 -22 10 -12 11 9 16 9 22 0 5 -8 3 -9 -6 -4 -10 6 -12 4 -7
-8 4 -10 2 -16 -5 -14 -6 1 -13 -4 -16 -12 -3 -8 0 -11 7 -7 6 4 11 2 11 -3 0
-6 -5 -11 -11 -11 -6 0 -3 -8 8 -18 10 -9 13 -13 5 -8 -10 7 -13 6 -10 -6 1
-9 -1 -16 -7 -15 -5 1 -9 6 -7 10 1 5 -2 6 -8 2 -8 -5 -8 -11 1 -21 6 -7 15
-12 19 -9 5 3 12 0 16 -6 5 -8 3 -9 -6 -4 -10 6 -12 4 -7 -7 3 -10 0 -15 -11
-14 -11 1 -16 -5 -14 -18 2 -12 -1 -16 -10 -10 -7 4 -4 -2 6 -14 11 -12 16
-25 13 -29 -4 -3 -7 0 -8 8 0 8 -4 6 -9 -6 -5 -14 -3 -24 8 -32 14 -12 14 -13
-2 -13 -16 0 -17 -2 -5 -17 8 -9 9 -14 3 -10 -16 10 -26 -21 -14 -43 5 -10 7
-26 3 -36 -5 -13 -3 -15 8 -9 11 7 12 6 2 -7 -7 -8 -9 -19 -5 -23 4 -5 1 -5
-6 -1 -7 4 -9 12 -6 18 4 6 2 8 -4 5 -5 -4 -8 -16 -5 -26 3 -10 0 -22 -6 -25
-6 -4 -11 -12 -11 -18 0 -5 9 0 20 13 10 13 19 19 20 14 0 -6 -5 -16 -12 -23
-9 -9 -9 -12 0 -12 7 0 12 -4 12 -10 0 -5 -7 -7 -16 -3 -14 5 -15 3 -5 -14 8
-16 7 -24 -5 -34 -12 -10 -12 -14 -2 -20 11 -7 11 -9 0 -9 -7 0 -11 -4 -7 -9
3 -5 0 -13 -5 -16 -8 -5 -6 -13 5 -25 12 -14 13 -20 4 -26 -8 -5 -10 -3 -4 6
6 9 4 11 -5 5 -10 -6 -9 -11 5 -22 14 -9 15 -13 4 -13 -12 0 -12 -2 0 -9 11
-7 11 -9 0 -14 -10 -4 -10 -6 -1 -6 6 -1 12 -6 12 -12 0 -5 -5 -7 -10 -4 -5 3
-10 1 -10 -4 0 -6 5 -11 12 -11 6 0 8 -3 5 -7 -4 -3 -2 -12 5 -20 6 -7 8 -16
4 -20 -3 -3 -6 -1 -6 5 0 7 -4 12 -8 12 -4 0 -8 -9 -8 -20 0 -11 3 -20 7 -20
4 0 9 -9 12 -19 5 -20 21 -22 45 -8 7 5 12 3 12 -5 0 -9 3 -9 10 2 9 13 10 13
10 0 0 -13 1 -13 10 0 9 13 10 13 10 0 0 -13 1 -13 10 0 9 13 10 13 10 0 0
-13 1 -13 10 0 9 13 10 13 10 0 0 -13 1 -13 10 0 9 13 10 13 10 0 0 -13 1 -13
10 0 9 13 10 13 10 0 0 -13 1 -13 10 0 8 12 10 12 10 1 0 -10 3 -11 13 -2 10
8 17 7 25 -1 9 -9 12 -9 12 2 0 13 2 13 10 0 8 -12 10 -12 10 -1 0 10 3 11 14
2 10 -9 16 -9 21 -1 5 8 10 8 20 0 10 -8 14 -7 18 2 4 11 6 10 6 0 1 -8 6 -10
13 -5 18 11 39 13 33 3 -6 -10 15 -8 32 3 8 5 13 3 13 -4 0 -8 5 -7 17 2 11
10 14 10 9 2 -4 -7 -3 -13 3 -13 5 0 13 5 17 11 4 8 9 7 15 -2 8 -12 11 -11
19 1 9 13 10 13 10 0 0 -12 2 -12 9 -1 5 7 11 9 14 3 7 -11 56 -10 75 1 7 5
12 3 12 -4 0 -8 7 -6 19 5 18 17 20 17 30 -1 6 -11 11 -13 11 -5 0 8 5 10 13
5 16 -10 68 -12 62 -2 -6 9 15 6 32 -4 6 -4 14 -1 17 5 5 10 7 10 12 0 5 -10
9 -10 22 0 12 10 14 10 8 1 -9 -16 6 -17 22 -1 9 9 12 9 12 -2 0 -13 2 -13 10
0 9 13 10 13 10 0 0 -13 1 -13 10 0 9 13 10 13 10 0 0 -13 1 -13 10 0 8 12 10
12 10 1 0 -11 3 -11 15 -1 11 9 15 9 15 1 0 -7 5 -9 12 -4 18 11 39 13 33 3
-6 -10 15 -8 33 3 7 5 12 3 12 -4 0 -8 5 -7 17 2 11 10 14 10 9 1 -4 -6 -3
-12 3 -12 5 0 13 5 17 11 4 8 9 7 15 -2 8 -12 11 -11 19 1 9 13 10 13 10 0 0
-12 2 -12 9 -1 5 7 11 9 14 3 7 -11 56 -10 74 1 8 5 13 3 13 -4 0 -9 3 -9 14
0 10 9 16 9 21 1 5 -8 11 -8 21 1 11 9 15 8 20 -5 6 -15 8 -15 20 1 11 15 13
15 14 3 0 -13 1 -13 10 0 9 13 10 13 10 0 0 -13 1 -13 10 0 9 13 10 13 10 0 0
-13 1 -13 10 0 5 8 10 10 10 4 0 -14 52 -13 62 1 5 6 8 4 8 -5 0 -13 1 -13 10
0 5 8 10 10 10 4 0 -6 7 -11 15 -11 8 0 15 4 15 9 0 5 10 4 21 -3 15 -8 19 -8
15 0 -4 6 -2 11 3 11 6 0 11 -6 11 -12 0 -9 4 -8 10 2 9 13 10 13 10 0 0 -13
1 -13 10 0 6 10 10 11 10 3 0 -7 5 -13 11 -13 5 0 7 5 3 11 -4 7 1 7 16 -1 15
-8 20 -8 16 -1 -4 6 -2 11 3 11 6 0 11 -6 11 -12 0 -9 4 -8 10 2 8 12 10 12
10 1 0 -11 3 -11 17 0 15 12 16 12 8 -1 -8 -13 -7 -13 8 -1 14 11 17 11 17 0
0 -11 2 -11 10 1 9 13 10 13 10 0 0 -13 1 -13 10 0 5 8 10 10 10 5 0 -6 13
-11 29 -10 16 0 27 4 24 10 -3 5 0 4 8 -2 19 -18 29 -16 22 5 -6 16 -6 16 11
-1 14 -14 21 -15 32 -6 11 9 14 8 14 -2 0 -12 2 -12 9 0 6 9 10 10 16 2 5 -9
11 -9 23 1 12 10 14 10 8 1 -4 -7 -3 -13 3 -13 5 0 12 6 14 13 4 9 6 8 6 -2 1
-11 4 -11 18 0 9 8 14 9 10 2 -8 -12 10 -12 31 0 7 5 12 3 12 -5 0 -9 3 -9 10
2 8 12 10 12 10 1 0 -11 3 -11 17 0 15 12 16 12 8 -1 -7 -13 -6 -13 7 -2 13
10 17 10 21 0 4 -10 6 -10 6 1 1 11 4 11 18 0 11 -10 14 -10 9 -1 -4 6 -2 12
3 12 6 0 11 -6 11 -12 0 -9 4 -8 10 2 6 10 10 11 10 3 0 -7 5 -13 11 -13 5 0
8 4 4 9 -3 6 4 8 17 5 42 -10 88 -12 83 -4 -6 10 15 8 32 -3 6 -4 14 -1 17 5
5 10 7 10 12 0 5 -10 9 -10 22 0 12 10 14 10 8 1 -9 -16 6 -17 22 -1 9 9 12 9
12 -2 0 -13 2 -13 10 0 9 13 10 13 10 0 0 -13 1 -13 10 0 9 13 10 13 10 0 0
-13 1 -13 10 0 8 12 10 12 10 1 0 -11 3 -11 15 -1 11 9 15 9 15 1 0 -7 5 -9
13 -4 17 11 38 13 32 3 -6 -10 15 -8 33 3 7 5 12 3 12 -4 0 -8 5 -7 17 2 11
10 14 10 9 2 -4 -7 -3 -13 3 -13 5 0 13 5 17 11 4 8 9 7 15 -2 8 -12 10 -12
18 0 7 11 9 11 14 0 4 -11 6 -11 6 -1 1 8 6 10 14 5 18 -11 38 -13 31 -2 -3 5
0 9 5 9 6 0 11 -6 11 -12 0 -9 4 -8 10 2 9 13 10 13 10 0 0 -13 1 -13 10 0 8
12 10 12 10 1 0 -11 3 -11 16 0 13 10 17 10 24 0 5 -10 9 -10 15 -2 5 9 10 9
21 0 11 -9 14 -8 14 2 0 10 3 10 12 1 8 -8 15 -9 25 -1 10 9 13 8 13 -2 0 -11
2 -11 10 1 8 12 10 12 10 1 0 -11 3 -11 17 0 14 12 16 12 8 0 -6 -11 -5 -12 6
-5 19 12 33 12 41 -1 5 -6 8 -4 8 5 0 13 1 13 10 0 8 -12 10 -12 10 -1 0 9 4
10 13 4 14 -11 27 -11 45 0 6 5 12 4 12 -1 0 -10 30 -9 48 2 7 4 15 1 18 -9 6
-14 8 -14 20 2 11 15 13 15 14 3 0 -13 1 -13 10 0 9 13 10 13 10 0 0 -13 1
-13 10 0 9 13 10 13 10 0 0 -13 1 -13 10 0 5 8 10 10 10 4 0 -14 52 -13 62 1
5 6 8 4 8 -5 0 -13 1 -13 10 0 5 8 10 10 10 4 0 -6 7 -11 15 -11 8 0 15 4 15
9 0 5 10 4 21 -3 15 -8 19 -8 15 0 -4 6 -2 11 3 11 6 0 11 -6 11 -12 0 -9 4
-8 10 2 9 13 10 13 10 0 0 -13 1 -13 10 0 6 10 10 11 10 3 0 -7 5 -13 11 -13
5 0 7 5 3 11 -4 7 1 7 16 -1 15 -8 20 -8 16 -1 -4 6 -2 11 3 11 6 0 11 -6 11
-12 0 -9 4 -8 10 2 8 12 10 12 10 1 0 -11 3 -11 17 0 15 12 16 12 8 -1 -8 -13
-7 -13 8 -1 14 11 17 11 17 0 0 -11 2 -11 10 1 9 13 10 13 10 0 0 -13 1 -13
10 0 5 8 10 10 10 5 0 -6 13 -11 29 -10 16 0 27 4 24 10 -3 5 0 4 8 -3 19 -17
29 -15 22 6 -7 16 -6 16 11 0 18 -18 42 -25 32 -10 -3 5 1 9 9 9 8 0 15 -5 15
-11 0 -6 5 -4 10 4 9 13 10 13 10 0 0 -13 1 -13 10 0 9 13 10 13 10 0 0 -13 1
-13 10 0 9 13 10 13 10 0 0 -13 1 -13 10 0 9 13 10 13 10 0 0 -13 1 -13 10 0
9 13 10 13 10 0 0 -13 1 -13 10 0 9 13 10 13 10 0 0 -13 1 -13 10 0 8 12 10
12 10 1 0 -10 3 -11 13 -2 10 8 17 7 25 -1 9 -9 12 -9 12 2 0 13 2 13 10 0 8
-12 10 -12 10 -1 0 10 3 11 14 2 10 -9 16 -9 21 -1 5 8 10 8 20 0 10 -8 14 -7
18 2 4 11 6 10 6 0 1 -8 6 -10 14 -5 17 11 38 13 32 3 -6 -10 15 -8 33 3 7 5
12 3 12 -4 0 -8 5 -7 17 2 11 10 14 10 9 2 -4 -7 -3 -13 3 -13 5 0 13 5 17 11
4 8 9 7 15 -2 8 -12 11 -11 19 1 9 13 10 13 10 0 0 -12 2 -12 9 -1 5 7 11 9
14 3 7 -11 56 -10 75 1 7 5 12 3 12 -4 0 -8 7 -6 19 5 18 17 20 17 30 -1 6
-11 11 -13 11 -5 0 8 5 10 13 5 16 -10 68 -12 62 -2 -6 9 15 6 32 -4 6 -4 14
-1 17 5 5 10 7 10 12 0 5 -10 9 -10 22 0 12 10 14 10 8 0 -9 -15 6 -16 22 0 9
9 12 9 12 -2 0 -13 2 -13 10 0 9 13 10 13 10 0 0 -13 1 -13 10 0 9 13 10 13
10 0 0 -13 1 -13 10 0 8 12 10 12 10 1 0 -11 3 -11 15 -1 11 9 15 9 15 1 0 -7
5 -9 13 -4 17 11 38 13 32 3 -6 -10 15 -8 33 3 7 5 12 3 12 -4 0 -8 5 -7 17 2
11 10 14 10 9 1 -4 -6 -3 -12 3 -12 5 0 13 5 17 11 4 8 9 7 15 -2 8 -12 11
-11 19 1 9 13 10 13 10 0 0 -12 2 -12 9 -1 5 7 11 9 14 3 7 -11 56 -10 75 1 7
5 12 3 12 -4 0 -8 5 -7 17 2 15 12 16 12 8 -1 -8 -13 -7 -13 8 -1 14 11 17 11
17 0 0 -12 2 -12 9 0 6 9 10 10 16 2 5 -9 11 -9 23 1 12 10 14 10 8 1 -4 -7
-3 -13 3 -13 5 0 12 6 14 13 4 9 6 8 6 -2 1 -11 4 -11 18 0 9 8 14 9 10 2 -8
-12 10 -12 31 0 7 5 12 3 12 -5 0 -9 3 -9 10 2 8 12 10 12 10 1 0 -11 3 -11
17 0 15 12 16 12 8 -1 -7 -13 -6 -13 7 -2 13 10 17 10 21 0 4 -10 6 -10 6 1 1
11 4 11 18 0 11 -10 14 -10 9 -2 -4 7 -2 13 3 13 6 0 11 -6 11 -12 0 -9 4 -8
10 2 6 10 10 11 10 3 0 -7 5 -13 11 -13 5 0 8 4 4 9 -3 6 4 8 17 5 42 -10 88
-12 83 -4 -6 10 15 8 32 -3 6 -4 14 -1 17 5 5 10 7 10 12 0 5 -10 9 -10 22 0
12 10 14 10 8 0 -9 -15 6 -16 22 0 9 9 12 9 12 -2 0 -13 2 -13 10 0 9 13 10
13 10 0 0 -13 1 -13 10 0 9 13 10 13 10 0 0 -13 1 -13 10 0 8 12 10 12 10 1 0
-11 3 -11 15 -1 11 9 15 9 15 1 0 -7 5 -9 13 -4 17 11 38 13 32 3 -6 -10 15
-8 33 3 7 5 12 3 12 -4 0 -8 5 -7 17 2 11 10 14 10 9 2 -4 -7 -3 -13 3 -13 5
0 13 5 17 11 4 8 9 7 15 -2 8 -12 11 -11 19 1 9 13 10 13 10 0 0 -12 2 -12 9
-1 5 7 11 9 14 3 7 -11 56 -10 75 1 6 5 12 4 12 -1 0 -5 7 -9 15 -9 8 0 12 4
9 9 -3 4 0 8 5 8 6 0 11 -5 11 -11 0 -8 4 -8 13 0 10 8 17 7 25 -1 9 -9 12 -9
12 1 0 10 3 11 13 2 10 -8 17 -7 25 1 9 9 12 9 12 -2 0 -13 2 -13 10 0 8 12
10 12 10 1 0 -11 3 -11 17 0 14 12 16 12 8 0 -6 -11 -5 -12 6 -5 19 12 33 12
41 -1 5 -6 8 -4 8 5 0 13 1 13 10 0 8 -12 10 -12 10 -1 0 9 4 10 13 4 14 -11
27 -11 45 0 7 5 12 4 12 -3 0 -8 6 -8 20 0 15 8 20 8 20 -2 0 -10 2 -10 9 1 6
9 10 10 16 2 5 -9 11 -9 23 1 12 10 14 10 8 1 -4 -7 -3 -13 3 -13 5 0 12 6 14
13 4 9 6 8 6 -2 1 -11 4 -11 18 0 9 8 14 9 10 2 -8 -12 10 -12 31 0 7 5 12 3
12 -5 0 -9 3 -9 10 2 8 12 10 12 10 1 0 -11 3 -11 17 0 15 12 16 12 8 -1 -7
-13 -6 -13 7 -2 13 10 17 10 21 0 4 -10 6 -10 6 1 1 11 4 11 18 0 11 -10 14
-10 9 -1 -4 6 -2 12 3 12 6 0 11 -6 11 -12 0 -9 4 -8 10 2 6 10 10 11 10 3 0
-7 5 -13 11 -13 5 0 8 4 4 9 -3 6 4 8 17 5 42 -10 88 -12 83 -4 -6 10 15 8 32
-3 6 -4 14 -1 17 5 5 10 7 10 12 0 5 -10 9 -10 22 0 12 10 14 10 8 1 -9 -16 6
-17 22 -1 9 9 12 9 12 -2 0 -13 2 -13 10 0 9 13 10 13 10 0 0 -13 1 -13 10 0
9 13 10 13 10 0 0 -13 1 -13 10 0 8 12 10 12 10 1 0 -11 3 -11 15 -1 11 9 15
9 15 1 0 -7 5 -9 13 -4 17 11 38 13 32 3 -6 -10 15 -8 33 3 7 5 12 3 12 -4 0
-8 5 -7 17 2 11 10 14 10 9 2 -4 -7 -3 -13 3 -13 5 0 13 5 17 11 4 8 9 7 15
-2 8 -12 10 -12 18 0 7 11 9 11 14 0 4 -11 6 -11 6 -1 1 8 6 10 14 5 16 -10
68 -12 62 -2 -6 9 15 6 32 -4 6 -4 14 -1 16 5 4 10 8 10 15 -1 7 -9 11 -10 17
-2 5 9 10 9 21 0 11 -9 14 -9 14 1 0 9 3 10 13 1 10 -8 17 -7 25 1 9 9 12 9
12 -2 0 -13 2 -13 10 0 8 12 10 12 10 1 0 -11 3 -11 17 0 14 12 16 12 8 0 -6
-11 -5 -12 6 -5 19 12 33 12 41 -1 5 -6 8 -4 8 5 0 13 1 13 10 0 8 -12 10 -12
10 -1 0 9 4 10 13 4 14 -11 27 -11 45 0 7 5 12 4 12 -3 0 -8 6 -8 20 0 15 8
20 8 20 -2 0 -10 2 -10 9 1 6 9 10 10 16 2 5 -9 11 -9 23 1 12 10 14 10 8 1
-4 -7 -3 -13 3 -13 5 0 12 6 14 13 4 9 6 8 6 -2 1 -11 4 -11 18 0 9 8 14 9 10
2 -8 -12 10 -12 31 0 7 5 12 3 12 -5 0 -9 3 -9 10 2 8 12 10 12 10 1 0 -11 3
-11 17 0 15 12 16 12 8 -1 -7 -13 -6 -13 7 -2 13 10 17 10 21 0 4 -10 6 -10 6
1 1 11 4 11 18 0 11 -10 14 -10 9 -1 -4 6 -2 12 3 12 6 0 11 -6 11 -12 0 -9 4
-8 10 2 6 10 10 11 10 3 0 -7 5 -13 11 -13 5 0 8 4 4 9 -3 6 4 8 17 5 42 -10
88 -12 83 -4 -6 10 15 8 32 -3 6 -4 14 -1 17 5 5 10 7 10 12 0 5 -10 9 -10 22
0 12 10 14 10 8 1 -9 -16 6 -17 22 -1 9 9 12 9 12 -2 0 -13 2 -13 10 0 9 13
10 13 10 0 0 -13 1 -13 10 0 9 13 10 13 10 0 0 -13 1 -13 10 0 8 12 10 12 10
1 0 -11 3 -11 15 -1 11 9 15 9 15 1 0 -7 5 -9 13 -4 17 11 38 13 32 3 -6 -10
15 -8 33 3 7 5 12 3 12 -4 0 -8 5 -7 17 2 11 10 14 10 9 1 -4 -6 -3 -12 3 -12
5 0 13 5 17 11 4 8 9 7 15 -2 8 -12 10 -12 18 0 7 11 9 11 14 0 4 -11 6 -11 6
-1 1 8 6 10 14 5 16 -10 68 -12 62 -2 -6 9 15 6 32 -4 6 -4 14 -1 16 5 4 10 8
10 15 -1 7 -9 11 -10 17 -2 5 9 10 9 21 0 11 -9 14 -9 14 1 0 9 3 10 13 1 10
-8 17 -7 25 1 9 9 12 9 12 -2 0 -13 2 -13 10 0 8 12 10 12 10 1 0 -11 3 -11
17 0 14 12 16 12 8 0 -6 -11 -5 -12 6 -5 21 13 39 14 39 1 0 -7 5 -5 10 3 9
13 10 13 10 0 0 -12 2 -12 9 -1 7 11 10 11 16 0 6 -9 10 -8 16 7 7 18 8 18 8
0 1 -15 4 -16 16 -6 12 10 15 10 15 0 0 -9 4 -9 17 1 9 8 14 9 10 2 -8 -12 10
-12 30 0 6 4 14 1 16 -5 4 -10 6 -10 6 0 1 7 5 10 11 7 6 -4 7 1 3 11 -5 13
-3 15 8 9 12 -8 12 -6 0 8 -11 14 -11 17 0 17 11 0 11 2 -1 10 -10 6 -11 10
-3 10 15 0 13 21 -2 32 -6 5 -4 8 5 8 13 0 13 1 0 10 -12 8 -12 10 5 10 17 0
17 2 5 10 -8 5 -15 20 -15 34 -1 19 2 22 11 15 9 -8 11 -5 7 10 -3 12 -10 18
-15 15 -5 -3 -4 3 3 14 11 17 10 24 -2 38 -9 11 -9 15 -1 10 7 -4 12 -1 12 8
0 9 -6 16 -12 16 -9 0 -9 3 1 9 13 8 13 12 0 27 -9 11 -9 15 -1 10 6 -4 12 -3
12 3 0 5 -6 12 -12 14 -10 4 -10 6 0 6 6 1 12 6 12 12 0 5 -6 7 -12 3 -9 -5
-9 -2 1 9 11 14 11 17 0 17 -11 0 -11 2 1 10 10 6 11 10 3 10 -7 0 -13 5 -13
11 0 5 4 8 9 5 13 -8 8 37 -6 52 -17 17 -5 45 16 37 10 -4 8 1 -6 15 -27 24
-29 35 -7 26 8 -3 12 -2 9 4 -3 6 -13 10 -21 10 -8 0 -14 4 -14 9 0 5 10 7 23
4 22 -6 22 -6 -2 14 -24 20 -24 20 -4 40 17 17 18 21 4 34 -9 8 -19 14 -22 14
-4 0 -11 4 -16 9 -4 5 -3 6 4 2 6 -3 14 -2 18 4 3 5 -2 10 -11 10 -16 0 -16 1
2 15 19 15 19 15 -1 8 -18 -6 -18 -5 -6 10 11 14 11 17 0 17 -11 0 -11 2 1 10
12 8 12 10 1 10 -11 0 -11 3 0 17 8 9 10 14 4 11 -6 -4 -10 9 -10 32 -1 21 3
36 7 34 4 -3 8 0 8 5 0 6 -4 11 -10 11 -5 0 -10 4 -10 10 0 5 6 8 13 6 6 -1 9
-1 5 1 -5 3 -8 11 -8 19 0 9 -5 12 -12 8 -7 -5 -8 -3 -4 5 5 7 15 10 23 7 9
-4 11 -2 6 7 -4 6 -7 22 -8 34 0 12 -4 25 -9 30 -6 5 -6 2 -1 -7 5 -9 5 -12
-1 -7 -5 5 -9 12 -9 15 0 4 -4 13 -8 20 -5 6 -4 12 0 12 5 0 15 -6 23 -12 8
-7 7 -4 -3 8 -9 11 -14 24 -10 29 5 4 0 5 -10 2 -10 -4 -16 -3 -12 2 3 5 -1
12 -7 14 -7 3 -4 6 7 7 18 1 19 1 2 11 -12 7 -15 15 -9 27 9 19 9 29 -3 56 -6
14 -4 21 6 25 8 2 0 9 -21 17 -20 8 -26 13 -13 11 12 -1 21 3 20 8 -1 6 -11 9
-22 9 -19 -2 -19 -1 0 12 18 14 18 14 -1 14 -16 0 -17 2 -4 10 13 9 13 10 0
10 -13 0 -13 1 0 10 13 8 12 10 -3 10 -10 0 -15 5 -12 10 4 6 11 7 17 4 7 -4
8 -2 4 5 -4 6 -11 9 -16 6 -4 -3 -14 3 -21 12 -10 12 -10 14 -1 9 6 -4 12 -2
12 3 0 6 -8 11 -17 11 -14 0 -15 2 -4 9 10 7 10 10 1 13 -7 2 -12 16 -12 31 0
22 -3 25 -14 16 -8 -7 -17 -9 -21 -5 -3 3 0 6 7 6 11 0 11 3 2 12 -7 7 -8 17
-1 30 7 12 6 18 -1 18 -6 0 -9 4 -5 9 3 5 0 13 -6 17 -7 4 -9 3 -5 -4 3 -6 2
-13 -2 -16 -5 -3 -9 7 -10 22 0 49 -2 54 -16 49 -11 -4 -13 -1 -9 10 4 10 2
14 -4 10 -6 -4 -14 0 -17 9 -3 8 -2 13 2 10 4 -2 8 4 8 15 0 12 -4 15 -10 9
-16 -16 -25 -12 -19 10 3 11 10 17 16 13 6 -3 7 -1 3 5 -4 6 -13 9 -21 5 -10
-3 -15 1 -15 12 0 9 -4 14 -9 10 -5 -3 -13 -1 -16 5 -4 6 -1 9 6 8 6 -2 14 3
17 11 2 8 0 11 -5 8 -14 -9 -47 30 -48 56 0 12 -4 28 -9 36 -6 9 -5 12 2 7 6
-3 13 -2 17 4 3 5 1 10 -4 10 -6 0 -11 5 -11 11 0 5 5 7 12 3 7 -4 8 -3 4 4
-4 7 -13 12 -19 12 -7 0 -17 10 -22 22 -6 13 -20 28 -32 34 -13 6 -20 14 -16
17 3 4 -1 7 -11 7 -9 0 -15 4 -12 9 3 5 -1 12 -10 15 -9 4 -14 13 -10 21 3 9
0 15 -8 15 -8 0 -17 7 -20 16 -6 15 -4 15 11 3 17 -12 17 -12 2 5 -9 9 -24 18
-35 18 -16 2 -19 9 -18 40 0 20 -3 35 -8 32 -4 -3 -5 -10 -2 -16 4 -7 2 -8 -4
-4 -9 5 -9 13 -2 27 6 10 7 19 3 18 -22 -4 -32 2 -27 16 4 8 1 15 -5 15 -6 0
-11 12 -11 26 0 24 -2 25 -17 13 -15 -13 -15 -12 -4 9 10 19 9 22 -6 22 -15 0
-16 2 -3 10 12 8 12 10 1 10 -11 0 -11 3 -1 15 9 10 9 15 1 15 -6 0 -11 5 -11
11 0 5 6 7 13 3 9 -5 9 -3 -1 7 -11 12 -14 12 -22 -1 -5 -8 -10 -10 -10 -4 0
6 10 19 23 27 20 14 20 15 2 11 -16 -4 -22 2 -31 30 -9 30 -9 34 3 25 11 -9
12 -8 7 5 -3 9 -10 16 -15 16 -5 0 -9 5 -9 11 0 5 4 8 9 4 5 -3 13 0 17 6 4 7
3 9 -4 5 -6 -3 -13 -2 -17 4 -3 5 0 10 7 10 8 1 5 7 -7 17 -16 13 -17 15 -2
10 9 -4 17 -2 17 3 0 6 -6 10 -12 10 -9 0 -8 4 2 10 13 9 13 10 0 10 -13 0
-13 1 0 10 10 6 11 10 3 10 -7 0 -13 5 -13 11 0 5 5 7 10 4 6 -3 10 -1 10 4 0
6 -6 11 -12 11 -9 0 -8 4 2 10 8 5 10 10 3 10 -12 0 -12 17 0 38 5 7 3 12 -5
12 -10 0 -10 2 1 9 11 7 11 9 0 14 -12 5 -12 6 0 6 11 1 11 4 0 18 -12 15 -12
16 3 10 12 -4 15 -2 11 9 -3 8 0 21 6 28 14 17 -2 31 -21 20 -10 -5 -10 -4 -2
5 9 10 17 10 35 1 20 -10 22 -10 12 1 -14 14 -18 33 -5 25 4 -2 8 9 8 25 1 16
-3 29 -10 29 -6 0 -4 5 4 10 13 9 13 10 0 10 -13 0 -13 1 0 10 8 5 10 10 3 10
-13 0 -12 25 2 37 4 4 5 3 1 -4 -3 -6 -2 -14 3 -17 5 -4 8 2 6 11 -2 10 -4 22
-4 26 -1 5 -6 5 -13 1 -7 -4 -8 -3 -4 5 6 9 11 9 24 -1 14 -12 14 -10 2 12
-12 23 -12 24 4 11 14 -12 16 -12 10 3 -4 10 -1 16 7 16 11 0 11 3 -1 10 -12
8 -13 12 -2 19 8 4 13 11 13 15 -5 34 0 48 17 42 16 -6 16 -5 0 7 -21 16 -14
28 10 19 15 -5 15 -4 3 11 -13 16 -8 22 13 18 5 -1 3 6 -5 15 -9 12 -9 15 -1
10 7 -4 12 -2 12 4 0 6 5 8 11 4 8 -4 8 0 0 15 -10 17 -9 20 4 15 18 -7 20 7
3 25 -10 11 -10 13 0 7 7 -5 12 -1 12 9 0 11 5 15 16 11 8 -3 12 -2 9 4 -3 6
0 10 7 10 8 0 6 4 -4 11 -15 8 -16 13 -6 29 7 10 16 16 22 13 5 -3 6 -1 2 5
-4 6 1 24 11 39 11 16 13 24 5 19 -11 -7 -11 -4 0 13 7 12 20 21 28 21 13 0
13 1 0 10 -8 5 -12 10 -7 11 4 1 12 3 17 4 6 1 12 3 15 4 3 0 0 11 -6 24 -11
20 -11 21 4 9 13 -11 15 -10 10 9 -5 17 -3 20 7 14 10 -6 12 -4 7 8 -3 9 -1
19 5 23 7 5 8 2 3 -6 -5 -9 -4 -11 4 -6 9 6 9 11 -1 24 -10 12 -10 14 0 8 8
-5 12 -1 12 11 0 15 2 16 10 3 8 -12 10 -10 10 8 0 16 4 21 13 16 9 -6 9 -4 2
7 -17 24 -3 85 17 73 6 -4 5 -10 -3 -16 -11 -8 -11 -9 1 -5 8 2 14 12 12 22
-2 11 1 14 9 9 8 -4 10 -3 5 4 -4 6 -14 9 -24 6 -15 -5 -15 -4 1 6 9 6 14 16
11 22 -5 8 -1 9 10 5 9 -4 14 -3 11 2 -3 5 -1 12 4 15 5 3 7 15 4 26 -3 12 0
20 6 20 7 0 9 5 5 13 -5 8 -2 7 9 -2 16 -13 17 -12 7 14 -9 24 -9 26 4 16 13
-11 15 -9 11 8 -3 14 1 21 12 21 13 0 13 3 3 15 -10 13 -11 18 -1 28 10 9 11
8 6 -5 -5 -11 -2 -18 5 -18 8 0 11 9 8 23 -3 15 0 24 8 24 7 0 10 -7 7 -16 -4
-14 -3 -14 5 -1 8 10 8 18 0 27 -8 10 -4 15 13 22 14 6 18 10 9 11 -8 1 -4 6
10 11 13 6 20 13 15 17 -6 4 -11 13 -13 21 -3 12 0 12 12 2 13 -11 14 -9 11
16 -2 15 -2 22 1 16 8 -19 24 -15 17 4 -4 11 -3 14 6 9 8 -5 12 -3 10 5 -4 34
1 48 17 42 14 -5 15 -3 4 18 -12 22 -12 23 4 10 9 -8 16 -10 15 -5 -4 21 2 34
16 34 14 0 19 12 16 33 0 4 4 7 10 7 5 0 7 5 3 12 -5 7 -2 9 8 5 23 -8 29 2
16 26 -9 17 -8 19 7 13 15 -5 16 -4 5 9 -11 13 -10 14 3 10 8 -4 18 -1 23 6 4
8 3 10 -4 5 -7 -4 -12 -2 -12 3 0 6 8 11 18 12 10 0 12 3 5 6 -7 2 -13 9 -13
15 0 6 6 8 14 5 10 -4 14 0 11 13 -2 11 1 23 7 26 7 4 8 2 4 -4 -4 -7 -2 -12
3 -12 6 0 11 5 11 11 0 6 12 20 26 31 14 11 23 27 20 34 -5 13 6 19 27 15 4
-1 3 8 -3 19 -9 17 -8 19 7 13 15 -6 16 -4 5 9 -10 12 -10 17 1 27 8 6 16 9
19 6 3 -3 11 2 19 12 9 11 10 14 2 9 -7 -4 -13 -2 -13 3 0 6 7 11 16 11 9 0
12 5 8 12 -5 8 -2 9 10 5 14 -6 17 -3 12 9 -5 12 -2 15 10 10 15 -6 15 -4 3
11 -9 11 -10 14 -1 9 7 -4 12 -2 12 4 0 6 5 8 10 5 6 -3 10 1 10 9 0 8 5 18
12 22 7 4 8 3 4 -4 -4 -7 -2 -12 5 -12 6 0 9 8 6 20 -3 11 0 23 5 27 7 3 8 1
4 -5 -4 -7 -2 -12 5 -12 6 0 9 8 6 19 -3 15 -1 18 11 14 10 -4 13 -2 8 5 -4 8
-2 10 7 6 8 -3 18 0 22 5 3 6 11 8 17 5 7 -4 8 -2 4 5 -6 9 -12 9 -24 -1 -15
-11 -15 -11 -5 3 7 9 10 19 6 23 -4 4 0 4 10 0 10 -3 17 -1 17 5 0 6 5 11 11
11 5 0 7 -5 3 -12 -4 -7 -3 -8 4 -4 7 4 12 14 12 23 0 13 2 13 17 2 15 -13 15
-12 4 8 -10 19 -9 22 4 17 9 -4 15 -1 15 7 0 11 3 11 10 -1 7 -12 10 -12 10
-1 0 8 6 11 16 7 14 -5 15 -4 5 8 -10 12 -9 13 8 9 13 -3 21 -1 21 6 0 7 -5 9
-12 5 -7 -4 -8 -3 -4 4 5 9 15 7 34 -5 22 -15 25 -15 15 -2 -10 13 -10 16 2
16 8 0 15 -3 15 -7 0 -4 7 -7 15 -7 12 0 12 3 2 16 -10 13 -8 13 14 -1 24 -15
26 -15 25 -1 0 9 9 17 22 19 16 3 21 0 16 -8 -4 -7 4 -2 16 11 15 15 25 20 28
13 2 -7 10 -12 18 -12 9 0 13 4 10 8 -2 4 4 8 15 8 10 0 19 -6 19 -13 0 -7 5
-13 10 -13 6 0 9 3 9 8 -3 19 2 23 15 13 11 -10 20 -6 42 16 15 15 22 20 15
11 -11 -14 -10 -17 8 -15 11 0 17 5 15 9 -3 4 2 8 10 8 8 0 20 8 26 18 9 13
10 13 7 1 -6 -18 17 -19 49 -1 12 6 24 9 27 6 3 -3 4 5 3 19 -2 20 1 23 17 19
14 -3 18 -1 13 6 -4 7 -2 12 4 12 6 0 8 5 4 12 -4 7 -3 8 4 4 6 -4 10 -12 8
-19 -1 -7 -1 -9 1 -4 3 4 9 5 13 2 5 -3 12 0 16 6 4 8 3 9 -4 5 -18 -11 -14 0
5 15 11 10 14 10 9 2 -4 -7 -2 -13 3 -13 6 0 11 5 11 11 0 5 4 8 9 5 12 -8 34
21 27 33 -4 6 2 8 13 6 15 -3 18 1 14 18 -4 17 -2 19 5 8 9 -12 13 -12 27 2
18 19 30 23 20 7 -3 -6 1 -7 9 -4 9 3 14 9 12 13 -3 4 4 13 16 20 15 9 18 10
13 0 -5 -8 -4 -10 3 -5 7 4 12 14 12 23 0 9 6 13 14 10 16 -7 12 16 -8 42 -8
11 -8 13 2 7 8 -5 12 0 12 14 0 12 -4 19 -9 15 -5 -3 -13 0 -17 6 -4 7 -3 9 3
6 6 -4 13 2 16 13 3 11 0 23 -5 27 -6 3 -8 1 -4 -5 3 -6 1 -14 -6 -18 -7 -4
-10 -4 -6 1 4 4 2 15 -5 23 -9 12 -9 14 0 9 7 -5 20 0 31 11 10 10 25 16 33
14 8 -2 5 3 -6 11 -20 16 -20 16 1 12 18 -3 21 1 17 18 -3 14 -2 18 4 10 5 -8
14 -9 23 -3 9 5 19 5 27 -2 9 -7 13 -7 13 1 0 7 4 10 9 7 5 -4 12 0 14 6 3 7
6 4 6 -7 1 -17 3 -17 11 -5 7 11 10 11 10 2 0 -9 6 -7 19 5 22 21 33 89 13 85
-10 -2 -16 9 -14 29 1 3 -6 6 -13 6 -11 0 -12 -4 -3 -14 8 -11 7 -12 -6 -7
-11 4 -16 14 -13 25 3 10 0 17 -5 16 -6 -1 -12 7 -14 19 -2 15 4 24 22 33 15
6 23 7 19 1 -3 -5 1 -10 9 -10 9 0 16 6 16 13 0 8 3 7 9 -3 6 -8 7 -19 3 -25
-3 -5 2 -4 11 4 18 15 23 26 7 16 -16 -10 -11 1 7 16 9 8 14 9 10 3 -4 -7 1
-18 10 -25 9 -8 14 -9 10 -3 -4 6 3 20 16 30 18 16 19 16 8 2 -8 -11 -9 -18
-3 -18 6 0 14 9 17 20 4 11 11 18 16 15 5 -4 9 -1 9 4 0 6 -6 11 -12 12 -7 0
-4 4 7 9 15 6 16 9 4 9 -9 1 -16 8 -16 16 0 10 4 12 12 5 8 -7 11 -3 10 12 -1
12 -7 24 -13 26 -7 2 -10 8 -6 13 3 5 0 8 -8 7 -7 -2 -12 3 -10 10 1 8 -2 11
-8 7 -6 -3 -8 -11 -5 -16 4 -5 1 -9 -4 -9 -11 0 -15 15 -12 34 1 5 -4 4 -12
-2 -8 -7 -18 -8 -22 -4 -5 4 -6 2 -2 -3 8 -16 -30 -38 -39 -23 -4 6 -3 8 4 4
6 -3 14 -1 18 5 4 8 3 9 -4 5 -7 -4 -12 -1 -12 6 0 10 -2 10 -9 -1 -5 -7 -7
-23 -5 -35 2 -11 2 -15 -2 -8 -3 6 -15 12 -25 12 -11 0 -18 -4 -15 -8 3 -5 -1
-9 -9 -9 -8 0 -14 3 -13 6 2 21 -4 22 -18 5 -8 -10 -13 -13 -9 -6 3 6 1 12 -4
12 -6 0 -11 -5 -11 -11 0 -6 -6 -4 -14 4 -8 8 -26 13 -40 12 -15 -2 -24 0 -22
3 2 4 -2 12 -9 19 -11 10 -15 10 -18 0 -3 -7 -6 -5 -6 5 -1 12 -8 16 -22 13
-17 -4 -19 -2 -8 11 6 8 9 17 5 21 -3 3 -6 1 -6 -5 0 -7 -5 -12 -11 -12 -5 0
-7 4 -4 10 3 6 1 10 -5 10 -6 0 -9 4 -6 9 3 5 -2 8 -12 7 -11 -1 -16 5 -14 17
2 9 -4 20 -12 23 -9 3 -13 10 -10 15 7 12 -3 11 -28 -2 -18 -9 -20 -9 -15 4 4
12 2 14 -10 10 -9 -4 -19 1 -25 11 -8 14 -12 15 -26 4 -13 -11 -15 -11 -10 2
4 11 0 16 -13 17 -10 1 -19 -3 -19 -9 0 -6 -3 -8 -6 -5 -4 4 -1 14 7 24 12 15
12 16 -3 10 -10 -3 -20 -2 -23 4 -4 5 1 12 10 15 12 5 13 9 4 21 -10 11 -9 13
2 11 8 -2 13 3 11 10 -1 8 2 11 8 7 6 -3 8 -11 5 -16 -4 -5 -1 -9 5 -9 7 0 9
8 4 22 -6 20 -5 21 10 9 14 -12 16 -12 11 2 -4 8 -1 18 6 23 8 4 10 3 5 -4 -4
-7 -2 -12 3 -12 6 0 11 5 11 11 0 6 7 9 15 5 8 -3 15 -1 15 5 0 6 6 7 13 3 9
-6 9 -4 -1 8 -10 13 -10 18 -1 24 8 5 9 3 4 -7 -8 -12 -6 -12 8 0 18 14 23 26
8 16 -5 -3 -12 -1 -16 5 -3 5 1 10 11 10 14 0 15 2 3 17 -13 15 -12 15 11 3
14 -7 22 -9 18 -5 -4 5 -2 15 5 23 9 13 9 14 0 8 -17 -10 -16 4 2 28 8 10 11
24 8 30 -4 6 1 5 9 -2 15 -12 16 -11 5 17 -6 16 -16 27 -21 24 -6 -4 -3 3 8
15 10 12 16 28 13 36 -4 10 -1 13 9 9 16 -6 16 17 -1 29 -6 5 -4 8 5 8 13 0
13 1 0 10 -13 9 -13 10 0 10 13 0 13 1 0 10 -11 7 -11 10 -2 10 7 0 10 5 7 10
-4 6 -12 8 -18 4 -7 -3 -3 2 7 10 15 12 16 16 5 16 -8 0 -10 3 -4 8 17 12 16
32 -2 33 -10 0 -13 3 -7 5 6 3 9 16 6 30 -3 16 1 30 9 35 19 12 -20 7 -41 -6
-11 -6 -10 -3 3 12 19 22 23 38 5 27 -7 -4 -8 -3 -4 4 4 7 1 12 -6 12 -10 0
-10 2 1 9 8 5 11 16 7 26 -5 13 -3 16 7 9 7 -5 4 -1 -6 9 -11 9 -15 17 -9 17
5 0 13 7 16 16 5 14 4 15 -9 4 -18 -15 -20 0 -2 19 10 11 9 12 -2 6 -11 -6
-13 -4 -8 8 4 12 1 17 -11 18 -11 1 -8 4 8 9 21 7 22 8 5 9 -11 1 -27 6 -35
12 -13 9 -12 10 2 5 12 -3 15 -1 11 10 -3 7 -11 14 -19 14 -8 0 -14 4 -14 9 0
5 -7 17 -16 25 -8 9 -11 16 -5 16 6 0 15 -9 21 -20 6 -11 15 -20 21 -20 5 0
-1 12 -15 27 -14 15 -22 31 -19 37 4 5 -1 7 -10 3 -9 -3 -19 -1 -23 5 -4 7 -3
8 4 4 7 -4 12 -4 12 -1 0 10 -27 35 -32 30 -3 -3 -5 2 -5 10 0 8 4 12 8 10 15
-10 18 25 3 40 -14 13 -13 15 8 16 22 0 22 1 3 9 -11 5 -14 9 -6 9 7 1 11 7 8
15 -4 10 -1 13 7 10 19 -7 32 16 15 27 -11 7 -11 9 2 9 23 0 60 55 46 69 -11
11 1 16 26 12 5 -1 6 3 3 8 -4 5 -15 8 -26 6 -12 -2 -18 0 -15 6 4 5 11 7 16
4 5 -4 9 -1 9 5 0 6 4 9 9 5 5 -3 13 0 17 6 4 8 3 9 -4 5 -11 -7 -16 7 -15 41
1 7 -3 10 -8 7 -5 -3 -9 0 -9 6 0 6 -4 8 -10 5 -5 -3 -10 2 -11 12 0 16 -1 16
-9 -2 -8 -18 -9 -18 -9 -2 -1 14 -6 17 -22 12 -16 -6 -20 -4 -14 6 7 12 5 12
-6 1 -12 -11 -12 -14 1 -22 13 -8 12 -10 -2 -10 -10 0 -18 8 -19 18 0 13 -3
11 -10 -6 -5 -13 -13 -21 -18 -17 -6 3 -15 -3 -21 -12 -10 -16 -11 -16 -6 -1
3 10 1 20 -5 23 -5 4 -8 3 -7 -2 2 -4 -7 -18 -20 -31 -13 -13 -20 -28 -15 -35
5 -8 2 -8 -9 1 -13 11 -16 10 -14 -5 1 -13 -5 -17 -23 -15 -15 2 -21 0 -17 -7
4 -6 3 -11 -3 -11 -6 0 -7 -8 -4 -17 7 -17 6 -17 -11 0 -22 21 -27 22 -19 0 5
-12 2 -15 -10 -10 -9 3 -16 3 -16 -1 3 -20 -2 -25 -12 -12 -8 12 -10 10 -5
-10 4 -21 3 -22 -7 -10 -7 9 -24 15 -40 13 -18 -1 -25 2 -21 9 4 7 2 8 -5 4
-17 -11 -2 -29 18 -21 13 5 14 4 4 -6 -10 -10 -16 -10 -24 -2 -6 6 -19 9 -28
6 -12 -4 -13 -3 -3 5 11 7 9 10 -7 15 -12 3 -24 0 -28 -5 -3 -7 -1 -8 5 -4 8
5 10 2 6 -8 -5 -12 -9 -13 -19 -3 -7 7 -10 16 -7 21 3 5 -2 6 -12 3 -10 -4
-21 -7 -24 -7 -4 0 0 -5 8 -10 11 -8 7 -9 -14 -4 -18 4 -27 3 -23 -3 3 -5 -1
-10 -9 -10 -10 0 -11 4 -4 11 14 14 13 23 -5 23 -8 0 -12 -4 -10 -8 3 -4 -5
-5 -17 -1 -16 4 -19 2 -13 -9 6 -11 5 -11 -5 -2 -15 14 -43 6 -33 -10 3 -6 1
-7 -5 -3 -9 5 -9 13 -1 29 10 21 9 21 -10 -2 -17 -18 -21 -20 -21 -7 0 10 -5
14 -10 11 -6 -4 -8 -10 -5 -15 3 -5 0 -12 -6 -16 -7 -4 -9 -3 -6 2 3 6 -2 15
-12 21 -15 9 -23 8 -40 -8 -17 -16 -21 -17 -21 -5 0 10 -6 13 -15 10 -8 -4
-12 -11 -8 -18 4 -6 -2 -4 -12 4 -10 8 -16 10 -12 3 4 -6 2 -15 -4 -19 -7 -4
-9 -3 -5 4 3 6 2 13 -3 16 -5 4 -12 2 -16 -4 -3 -5 -12 -10 -18 -10 -7 0 -6 4
3 11 12 8 11 9 -6 7 -24 -3 -54 18 -54 39 0 8 -4 12 -9 8 -5 -3 -13 0 -17 6
-4 8 -3 9 4 5 13 -8 17 6 5 18 -11 10 -12 37 -2 30 5 -3 9 0 9 5 0 6 -7 11
-15 11 -9 0 -12 6 -8 17 5 12 3 14 -8 8 -11 -6 -12 -5 -1 6 15 16 16 29 1 29
-5 0 -7 -6 -3 -12 6 -9 3 -9 -9 1 -12 9 -14 18 -7 30 13 26 8 61 -10 62 -10 0
-9 3 5 9 11 5 14 9 6 9 -9 1 -11 9 -7 27 4 14 3 23 -1 21 -5 -3 -9 8 -9 24 -2
26 0 28 15 17 14 -11 14 -11 4 3 -7 9 -9 20 -5 24 4 5 1 5 -5 1 -7 -4 -13 -2
-13 4 0 6 7 13 16 17 12 4 10 9 -13 24 -31 21 -24 26 10 8 l22 -12 -20 20
c-11 11 -23 19 -27 17 -4 -3 -10 1 -14 7 -4 8 -3 9 4 5 16 -10 16 36 0 53 -10
11 -10 13 0 7 6 -4 12 -2 12 3 0 6 -6 11 -12 11 -10 0 -9 3 1 9 11 7 11 9 0
14 -11 5 -11 8 3 19 15 13 15 15 0 25 -16 11 -16 12 1 12 9 1 17 6 17 12 0 5
-6 7 -12 3 -9 -5 -9 -2 1 9 14 18 26 23 16 8 -3 -5 -1 -12 5 -16 5 -3 10 -1
10 6 0 8 5 7 17 -2 15 -12 16 -12 11 3 -6 15 -4 16 31 9 2 -1 -3 -8 -10 -18
-13 -15 -12 -15 7 -5 17 9 25 8 41 -8 16 -14 23 -16 33 -7 10 9 11 9 5 -2 -6
-10 -4 -12 6 -5 20 12 38 14 45 3 3 -6 12 -5 22 3 13 11 14 11 7 -1 -6 -11 -4
-13 10 -7 15 5 16 4 5 -9 -11 -13 -10 -14 3 -10 8 4 18 2 21 -4 4 -6 13 -8 21
-4 9 3 15 -1 15 -8 0 -11 3 -11 10 1 9 13 10 13 10 0 0 -13 1 -13 10 0 9 13
10 13 10 0 0 -13 1 -13 10 0 9 13 10 13 10 0 0 -13 1 -13 10 0 6 10 10 11 10
3 0 -7 12 -13 26 -13 14 0 23 -4 20 -9 -3 -5 1 -12 10 -15 8 -3 13 -2 10 2 -3
5 1 9 8 9 8 0 12 -5 10 -12 -5 -12 44 -14 62 -2 7 4 17 0 24 -9 7 -8 19 -13
26 -10 7 2 20 -4 30 -15 9 -10 22 -19 28 -19 6 0 4 5 -4 10 -12 8 -11 10 5 7
11 -1 26 -6 33 -10 7 -5 12 -3 12 3 0 6 4 9 9 6 5 -3 11 1 15 9 3 8 12 15 21
15 17 0 20 11 5 26 -6 6 -5 19 4 35 13 25 12 26 -7 21 -16 -4 -19 -2 -14 12 4
11 3 15 -4 10 -8 -4 -9 1 -5 17 6 21 5 22 -4 6 -9 -14 -15 -16 -26 -6 -12 9
-12 15 -2 27 10 13 10 14 1 8 -12 -6 -18 4 -14 26 0 4 -7 4 -17 1 -15 -6 -16
-5 -2 13 8 10 10 16 6 12 -5 -4 -15 0 -23 10 -12 16 -13 16 -8 -3 5 -16 3 -16
-6 3 -7 12 -19 22 -28 22 -14 0 -14 2 -1 10 13 9 13 10 0 11 -8 0 -23 2 -32 4
-10 2 -21 -2 -25 -7 -4 -7 -1 -8 7 -3 9 5 11 4 6 -4 -6 -9 -11 -9 -23 1 -9 7
-24 12 -35 10 -10 -2 -18 2 -18 8 0 6 5 8 13 4 8 -5 8 -2 -2 9 -14 18 -26 23
-17 8 3 -5 -1 -11 -9 -14 -9 -4 -12 -1 -9 7 3 7 -2 13 -11 13 -9 0 -14 -6 -11
-14 7 -17 1 -17 -18 3 -9 8 -16 11 -16 5 0 -19 -20 -12 -21 7 0 14 -2 14 -9
-3 -5 -11 -9 -14 -9 -6 -1 11 -4 11 -16 1 -9 -7 -18 -10 -22 -6 -3 3 0 6 8 7
8 1 3 4 -11 8 -16 5 -33 2 -47 -6 -15 -10 -23 -11 -28 -3 -3 6 -3 10 2 9 18
-3 33 2 33 11 0 5 -7 6 -17 3 -11 -4 -14 -3 -9 6 4 6 4 11 -1 10 -21 -4 -44 2
-39 9 3 5 -1 9 -8 9 -9 0 -12 -7 -9 -16 5 -13 3 -14 -8 -3 -16 15 -33 16 -24
2 9 -14 -16 -8 -33 8 -7 6 -20 12 -28 12 -8 0 -13 4 -9 9 3 5 0 13 -6 17 -8 4
-9 3 -5 -4 4 -7 1 -12 -8 -12 -9 0 -16 -4 -16 -10 0 -5 5 -10 12 -10 6 0 8 -3
5 -6 -4 -4 -13 -1 -22 6 -8 7 -15 9 -15 6 0 -4 -6 -1 -14 6 -8 7 -11 18 -8 23
3 6 -1 4 -10 -3 -13 -10 -18 -10 -24 -1 -5 8 -3 9 6 4 9 -5 11 -4 6 4 -4 6
-12 9 -17 6 -5 -4 -17 -1 -26 4 -17 10 -16 10 2 11 16 0 17 2 5 9 -8 6 -18 7
-24 4 -5 -3 -6 -1 -2 6 4 6 12 9 17 6 5 -4 5 4 -1 19 -7 19 -6 26 2 26 6 0 8
3 5 6 -4 4 -13 1 -22 -6 -15 -12 -22 0 -8 14 11 10 12 37 2 30 -5 -3 -6 -10
-3 -16 4 -6 2 -8 -4 -5 -5 4 -8 17 -5 30 4 18 3 19 -6 7 -7 -9 -11 -10 -11 -3
0 6 5 15 10 18 15 9 12 27 -2 19 -10 -6 -10 -4 0 7 14 15 16 33 3 25 -5 -4 -8
2 -6 11 1 10 10 17 19 17 13 -2 14 1 6 11 -8 9 -8 15 0 20 5 3 10 1 10 -4 0
-6 5 -11 11 -11 5 0 7 5 3 12 -5 7 -3 8 7 2 21 -13 39 -14 39 -1 0 8 3 7 9 -2
6 -9 11 -10 15 -2 4 6 12 11 17 11 6 0 8 -4 5 -8 -8 -14 40 -8 57 6 12 10 17
10 23 1 5 -8 3 -10 -7 -4 -8 5 -10 4 -6 0 10 -11 39 -16 32 -5 -3 4 2 10 10
13 8 4 12 1 9 -6 -2 -7 4 -13 16 -14 11 -1 20 3 20 8 0 6 -4 7 -10 4 -5 -3
-10 -1 -10 4 0 16 11 13 33 -7 11 -9 17 -11 13 -4 -10 17 10 15 28 -4 19 -18
22 -4 4 16 -11 12 -10 12 2 3 8 -6 25 -9 38 -7 13 2 22 -1 22 -9 0 -8 4 -7 10
3 9 13 10 13 10 0 0 -13 1 -13 10 0 8 12 10 12 10 1 0 -11 3 -11 17 0 9 8 14
9 10 3 -10 -18 17 -24 44 -10 25 13 69 2 69 -17 0 -6 -5 -6 -12 0 -15 12 -49
13 -42 2 2 -5 11 -6 18 -3 7 3 19 -2 26 -10 13 -16 35 -12 25 5 -3 5 1 6 9 3
9 -3 13 -11 9 -18 -4 -6 1 -5 10 3 11 9 17 10 17 2 0 -6 7 -11 16 -11 9 0 12
5 8 11 -4 7 -1 10 7 7 8 -3 14 -10 14 -16 0 -5 4 -14 9 -19 5 -5 6 -3 2 5 -4
6 -3 12 2 12 17 0 22 -13 9 -29 -11 -14 -10 -14 5 -2 14 10 15 18 7 35 -10 20
-10 20 8 -1 18 -23 49 -29 91 -19 13 3 20 1 17 -5 -4 -5 -10 -7 -15 -4 -5 3
-11 1 -15 -4 -5 -10 7 -9 53 5 15 4 22 2 22 -7 0 -8 6 -5 15 7 11 14 14 15 9
3 -3 -10 0 -20 7 -25 7 -4 10 -3 6 3 -4 6 1 17 10 24 10 8 14 9 10 2 -4 -6 -3
-14 3 -18 5 -3 10 0 10 7 0 9 3 9 8 2 8 -12 51 -13 70 -1 6 5 12 5 12 0 0 -4
5 -1 10 7 8 12 10 12 10 -5 0 -17 2 -17 10 -5 6 10 10 11 10 3 0 -7 5 -13 11
-13 5 0 7 6 3 13 -5 8 -2 8 9 -2 14 -11 17 -11 17 0 0 8 6 5 15 -7 9 -11 13
-13 10 -4 -4 11 2 15 24 15 16 1 27 -3 25 -7 -3 -4 0 -8 5 -8 6 0 11 6 11 13
0 9 3 8 9 -2 6 -9 10 -10 16 -2 4 7 12 8 18 4 18 -13 47 -9 58 7 9 12 10 10 6
-8 -4 -18 -3 -21 7 -13 7 6 15 8 18 5 11 -10 57 -14 63 -4 3 6 -1 7 -9 4 -9
-3 -16 -2 -16 4 0 12 18 10 47 -6 25 -14 36 -15 29 -4 -3 5 1 9 9 9 8 0 12 -4
9 -9 -3 -4 -2 -8 3 -9 4 0 16 -2 26 -4 9 -2 15 0 12 5 -3 4 5 10 17 13 12 4
19 9 15 13 -4 4 1 13 11 21 16 12 15 13 -3 7 -16 -6 -18 -4 -8 6 16 17 -5 63
-25 55 -8 -3 -23 4 -33 16 -11 12 -19 17 -19 12 0 -6 -7 -14 -16 -17 -14 -5
-15 -4 -4 9 11 13 10 15 -6 12 -11 -1 -24 -6 -30 -9 -6 -4 -11 -1 -12 7 -1 8
-3 22 -4 30 -1 10 -8 13 -21 9 -15 -5 -18 -3 -12 7 6 11 5 11 -5 2 -10 -9 -19
-9 -42 3 -17 9 -37 13 -45 9 -13 -4 -14 -3 -4 9 9 11 9 16 0 22 -8 4 -9 3 -5
-4 10 -16 -5 -14 -28 3 -10 8 -23 12 -28 8 -6 -3 -5 4 1 15 9 16 7 19 -7 18
-11 0 -18 7 -20 22 -2 12 -7 22 -12 22 -5 0 -7 -8 -3 -17 3 -10 4 -16 2 -13
-2 3 -13 15 -24 28 -19 23 -19 23 1 17 18 -6 18 -6 1 5 -10 6 -25 9 -33 6 -8
-3 -14 -1 -14 3 0 5 6 12 13 14 6 3 2 6 -11 6 -13 1 -21 5 -18 9 2 4 -3 8 -12
8 -9 1 -24 3 -32 6 -8 3 -12 3 -7 1 12 -8 8 -20 -8 -20 -8 0 -15 5 -15 10 0 5
-8 3 -17 -4 -9 -8 -14 -9 -10 -3 4 7 0 14 -8 18 -10 3 -15 -1 -15 -12 0 -14
-2 -15 -9 -2 -6 8 -8 17 -6 20 5 9 -33 6 -41 -3 -15 -15 -26 -6 -13 10 10 12
10 15 1 9 -7 -4 -27 -10 -45 -12 -18 -3 -44 -7 -59 -9 -17 -2 -31 2 -39 13
-11 14 -11 15 1 5 8 -7 18 -13 24 -13 5 0 1 6 -9 14 -14 10 -23 11 -36 3 -10
-6 -15 -15 -12 -21 3 -5 1 -6 -6 -2 -9 6 -9 11 -1 21 8 10 6 13 -7 11 -10 0
-21 -5 -25 -11 -5 -6 -8 -5 -8 3 0 8 -5 10 -12 6 -24 -15 -49 -12 -43 5 3 11
0 10 -10 -3 -11 -14 -15 -16 -15 -5 0 12 -2 12 -10 -1 -8 -12 -10 -12 -10 -1
0 11 -3 11 -17 0 -9 -8 -19 -12 -22 -11 -31 18 -39 20 -50 9 -9 -9 -14 -9 -20
2 -7 11 -9 11 -14 0 -4 -10 -6 -10 -6 -1 -1 6 -6 12 -12 12 -5 0 -7 -6 -3 -12
6 -10 4 -10 -8 0 -14 11 -18 10 -27 -5 -10 -17 -10 -17 -11 1 0 11 -3 16 -7
13 -3 -4 -12 -2 -20 5 -11 8 -12 7 -8 -5 4 -8 1 -18 -5 -22 -6 -3 -10 -3 -9 2
3 20 -2 25 -16 13 -12 -10 -15 -10 -16 1 0 8 -4 5 -9 -6 -6 -15 -9 -16 -9 -4
-1 10 -9 15 -23 13 -13 -1 -23 -3 -23 -4 0 -1 -8 -3 -17 -5 -11 -2 -18 3 -18
13 -1 15 -2 15 -11 -1 -6 -9 -15 -15 -20 -12 -5 4 -6 11 -3 17 4 7 2 8 -5 4
-6 -4 -9 -12 -6 -17 4 -5 1 -9 -4 -9 -6 0 -11 6 -11 13 0 9 -3 8 -9 -2 -7 -11
-9 -11 -14 0 -4 12 -7 11 -16 -1 -6 -8 -11 -10 -11 -5 0 6 -13 10 -29 10 -16
1 -27 -3 -25 -7 3 -4 0 -8 -5 -8 -6 0 -11 5 -11 11 0 8 -6 7 -17 -2 -9 -8 -14
-9 -10 -3 4 7 0 14 -8 17 -10 4 -12 1 -9 -11 3 -9 -1 -7 -8 6 -8 12 -18 19
-23 15 -5 -4 -1 4 8 19 15 24 15 28 1 42 -12 12 -12 16 -2 16 10 0 9 3 -2 10
-13 9 -13 10 0 10 13 0 13 1 0 10 -13 9 -13 10 0 10 9 0 11 3 5 8 -16 11 -19
46 -3 36 10 -6 10 -4 -1 9 -9 11 -22 15 -35 12 -17 -5 -17 -3 4 9 18 11 21 15
8 16 -9 0 -20 5 -24 12 -4 7 -3 8 4 4 7 -4 12 -1 12 9 0 9 -3 14 -8 12 -4 -3
-7 8 -7 23 -1 16 3 26 7 24 4 -3 8 0 8 5 0 6 -6 11 -12 11 -9 0 -8 4 2 10 13
9 13 10 0 10 -12 0 -13 2 -1 9 10 6 10 10 1 13 -7 2 -13 25 -15 52 -1 28 1 42
6 34 7 -10 10 -10 21 1 7 8 8 11 2 8 -6 -3 -11 -1 -11 6 0 8 18 12 53 12 29 1
50 -3 48 -7 -3 -4 2 -8 11 -8 9 0 14 4 11 8 -3 5 2 9 10 9 9 0 13 -6 9 -16 -4
-12 -1 -11 9 2 14 18 15 17 21 -4 7 -20 8 -20 17 -6 7 14 13 15 31 5 19 -10
20 -9 10 4 -10 12 -10 15 2 15 8 0 15 -10 16 -21 1 -18 2 -18 9 4 5 16 8 19 9
8 1 -9 5 -20 11 -23 6 -4 7 1 3 12 -6 16 -5 17 12 3 17 -14 18 -13 11 4 -7 19
-6 19 12 2 18 -16 21 -16 36 -1 9 9 16 12 16 6 0 -6 7 -11 16 -11 8 0 13 4 10
8 -3 5 1 9 9 9 8 0 12 -4 9 -9 -6 -9 -4 -9 48 -12 20 -1 35 1 32 5 -2 4 0 10
6 14 5 3 10 -1 10 -10 0 -13 3 -14 23 -3 24 13 88 18 80 6 -7 -13 22 -9 36 5
11 10 13 10 7 0 -4 -7 -2 -13 3 -13 6 0 11 4 11 9 0 7 69 8 78 1 9 -8 30 -4
46 9 11 9 16 11 13 4 -4 -6 -3 -14 3 -18 5 -3 10 3 10 14 0 12 5 21 11 21 5 0
7 -5 3 -12 -5 -7 -3 -8 5 -4 7 5 10 14 7 22 -3 8 0 13 7 11 7 -1 12 9 12 24 0
16 4 25 11 22 6 -2 11 3 11 11 0 8 -4 13 -9 10 -4 -3 -8 2 -8 11 0 9 -4 13
-10 10 -5 -3 -10 -1 -10 6 0 7 -3 9 -7 6 -3 -4 -15 0 -25 10 -10 9 -18 13 -18
8 0 -4 -8 -1 -17 6 -14 12 -16 12 -11 -1 4 -11 0 -16 -13 -16 -14 0 -15 3 -7
13 6 8 8 16 4 20 -3 3 -6 1 -6 -6 0 -9 -8 -11 -21 -8 -16 4 -19 2 -14 -11 5
-13 1 -12 -16 4 -18 16 -21 16 -16 2 6 -17 -15 -20 -30 -3 -4 4 -2 5 4 1 9 -5
11 -2 6 10 -5 15 -7 15 -15 0 -7 -12 -14 -14 -28 -6 -15 8 -21 6 -29 -7 -7
-12 -10 -13 -11 -4 0 10 -6 10 -26 -4 -25 -16 -25 -16 -13 7 12 22 11 23 -8 5
-18 -16 -22 -16 -33 -2 -7 8 -17 12 -24 8 -6 -4 -5 1 3 10 12 15 12 17 -4 11
-10 -4 -21 -1 -26 7 -7 11 -9 11 -9 -3 0 -11 -6 -16 -19 -13 -14 3 -18 -1 -14
-11 6 -17 -8 -18 -26 -1 -12 10 -13 9 -7 -7 7 -20 7 -20 -15 0 -12 10 -19 13
-15 7 5 -10 1 -11 -19 -3 -15 6 -24 6 -20 1 3 -5 1 -12 -5 -16 -5 -3 -10 -1
-10 6 0 7 -3 9 -7 6 -3 -4 -13 -1 -21 6 -13 10 -15 9 -9 -8 6 -18 6 -18 -6 -3
-12 15 -14 15 -25 0 -7 -9 -10 -11 -7 -4 3 6 2 12 -4 12 -5 0 -12 -6 -14 -12
-4 -10 -6 -10 -6 0 -1 6 -8 12 -17 12 -8 0 -13 -4 -10 -9 7 -10 -9 -8 -36 4
-10 4 -16 10 -14 14 3 4 -4 7 -14 7 -14 0 -16 -4 -9 -12 11 -14 -7 -14 -28 -1
-6 4 -14 3 -18 -3 -4 -6 -12 -7 -18 -3 -20 13 -39 12 -34 -1 3 -6 -3 -12 -14
-12 -10 0 -16 2 -14 5 3 2 -2 13 -12 23 -9 10 -12 18 -8 18 4 0 0 9 -10 20
-18 20 -18 21 1 14 17 -7 17 -6 5 9 -7 9 -18 14 -24 10 -5 -3 -7 -1 -3 5 3 6
1 14 -5 18 -9 5 -7 11 6 21 18 12 18 13 -4 13 -12 0 -20 4 -16 10 3 5 13 6 22
3 15 -6 16 -5 3 9 -8 9 -18 14 -21 12 -14 -8 -17 26 -4 40 13 12 13 15 0 20
-8 3 -12 14 -10 26 2 11 -1 20 -8 20 -7 0 -6 4 3 10 13 8 12 10 -3 10 -10 0
-15 5 -12 10 3 5 1 10 -6 10 -9 0 -9 3 0 14 9 11 8 14 -6 12 -10 0 -18 5 -19
12 -1 6 -3 15 -4 20 -1 4 -2 12 -1 17 1 6 -6 1 -15 -10 -11 -14 -15 -16 -14
-5 4 27 0 41 -9 35 -5 -3 -13 0 -17 6 -4 8 -3 9 4 5 7 -4 12 -2 12 3 0 6 -5
11 -11 11 -5 0 -7 5 -4 10 3 6 -1 10 -9 10 -19 0 -20 11 -3 30 10 12 9 12 -4
2 -13 -10 -19 -9 -30 5 -12 15 -12 16 1 8 10 -5 8 -1 -4 13 -15 18 -16 24 -6
37 10 12 9 16 -6 22 -23 8 -49 33 -36 33 6 0 12 6 15 13 3 8 -1 14 -9 14 -7 0
-10 -5 -7 -11 4 -6 -1 -5 -10 3 -18 15 -23 26 -7 16 6 -3 10 -1 10 4 0 6 -5
11 -11 11 -8 0 -8 4 0 14 10 12 8 14 -11 9 -17 -3 -19 -2 -9 5 20 14 6 42 -19
37 -11 -2 -18 0 -15 6 4 5 0 9 -7 9 -9 0 -9 3 2 10 13 9 13 10 0 11 -8 1 -18
1 -22 0 -5 0 -8 6 -8 15 0 8 -4 13 -9 10 -11 -7 -23 22 -15 35 3 5 -7 14 -23
20 -26 10 -27 12 -8 19 14 6 16 9 5 10 -8 2 -18 2 -22 1 -4 0 -5 12 -3 27 2
15 2 21 -1 15 -3 -7 -10 -13 -15 -13 -6 0 -7 5 -4 10 5 9 -1 12 -21 9 -13 -1
-31 35 -26 53 3 13 0 17 -11 12 -12 -4 -14 0 -10 18 4 18 3 20 -6 8 -9 -13
-11 -12 -11 3 0 11 -12 22 -29 28 -20 7 -28 15 -24 25 3 8 1 14 -5 14 -5 0
-13 7 -16 16 -5 14 -4 15 9 4 13 -11 14 -10 9 4 -3 9 -11 16 -17 16 -6 0 -3 6
8 13 14 11 15 16 5 22 -9 6 -11 4 -5 -5 5 -9 4 -11 -4 -6 -9 6 -9 11 0 22 9
11 9 14 0 14 -7 0 -9 5 -4 13 4 6 9 21 10 32 3 16 1 17 -7 5 -8 -12 -10 -9
-10 13 0 18 -4 26 -11 21 -8 -4 -9 1 -4 16 4 14 3 20 -3 16 -5 -3 -13 1 -16
10 -3 8 -2 12 4 9 6 -3 10 1 10 10 0 10 -5 13 -12 9 -10 -6 -10 -4 -2 7 14 19
11 45 -5 41 -8 -2 -10 4 -6 18 4 12 2 20 -5 20 -6 0 -8 -4 -5 -10 10 -16 -1
-11 -16 7 -8 9 -9 14 -4 11 6 -3 16 0 23 8 8 9 9 14 2 14 -6 0 -9 4 -5 9 3 5
0 13 -6 17 -8 5 -9 3 -4 -6 5 -9 4 -11 -4 -6 -8 5 -7 13 3 28 8 11 12 27 9 35
-3 8 0 19 8 24 8 5 9 9 3 9 -6 0 -11 6 -11 14 0 9 6 12 16 8 14 -5 14 -3 2 11
-12 15 -11 17 3 17 10 0 14 5 11 10 -4 6 -12 8 -18 4 -7 -3 -4 1 5 8 15 13 15
15 0 26 -15 10 -15 11 3 5 17 -5 18 -4 7 8 -10 11 -8 17 10 32 l23 18 -25 -6
c-21 -5 -23 -4 -10 7 15 13 23 61 8 52 -4 -3 -8 -3 -8 1 0 9 33 59 45 67 6 5
6 8 -2 8 -7 0 -12 11 -11 25 1 14 7 24 14 21 6 -2 11 2 11 10 0 7 -5 10 -10 7
-7 -4 -7 1 -3 13 5 10 9 24 9 31 0 14 25 26 37 18 5 -3 7 -12 3 -20 -3 -8 1
-15 8 -15 7 0 9 3 6 7 -4 3 -2 12 3 18 7 9 6 16 -5 25 -8 7 -15 17 -15 22 0 6
7 5 15 -2 9 -7 18 -10 22 -6 3 3 1 6 -5 6 -6 0 -18 13 -27 30 -14 27 -14 30 6
49 12 11 26 18 31 15 4 -3 8 0 8 5 0 13 -21 14 -36 4 -5 -5 -2 -1 7 7 14 13
14 18 2 29 -11 10 -11 16 -2 27 6 7 15 12 18 9 4 -2 8 2 8 9 0 8 -7 12 -16 9
-9 -3 -5 4 9 16 22 18 21 26 -3 22 -5 -1 -6 3 -2 9 4 6 12 7 24 1 13 -7 18 -6
18 4 0 8 -4 12 -9 9 -4 -3 -5 2 -2 10 3 9 13 12 22 9 14 -5 15 -3 5 8 -17 18
-16 26 3 33 15 6 15 4 3 -11 -12 -17 -12 -17 7 0 11 11 15 21 9 25 -5 4 -11
13 -13 21 -3 12 0 12 13 1 13 -11 15 -10 9 4 -3 9 -10 16 -16 16 -5 0 -6 5 -3
10 4 6 12 7 18 3 7 -4 7 0 -1 10 -12 14 -11 16 7 12 12 -2 19 0 16 5 -3 4 -2
10 2 13 5 2 3 2 -4 1 -7 -2 -15 2 -19 8 -4 6 -3 8 4 4 12 -7 25 10 29 39 3 16
1 17 -7 5 -6 -9 -10 -10 -10 -3 0 6 5 15 10 18 6 3 10 13 10 21 0 8 -4 13 -8
10 -4 -2 -8 4 -8 14 0 13 4 16 12 9 9 -7 12 -1 10 24 -1 23 3 33 10 30 18 -7
29 18 13 28 -11 7 -10 9 5 9 14 0 16 3 7 13 -8 10 -7 19 5 33 8 10 12 13 8 5
-5 -10 -3 -12 5 -7 9 6 9 11 0 22 -10 12 -9 13 5 8 9 -4 16 -3 15 2 -4 26 3
55 18 70 19 18 26 44 13 44 -13 0 -5 31 9 40 9 5 10 9 2 14 -13 9 -5 26 12 26
8 0 8 -3 -1 -9 -11 -7 -11 -9 1 -14 10 -4 14 0 12 11 -1 9 3 21 9 25 7 6 6 7
-4 4 -10 -3 -16 2 -16 13 0 10 6 16 12 13 8 -3 11 3 9 14 -2 10 -4 18 -5 18
-1 0 -3 10 -4 22 -2 15 2 20 13 18 9 -1 23 4 31 13 13 14 12 15 -3 9 -9 -3
-19 -1 -23 5 -4 6 -3 8 3 5 6 -4 16 0 22 7 9 10 9 16 1 21 -8 5 -7 11 2 23 11
13 10 15 -4 9 -10 -3 -18 -2 -18 3 0 6 7 10 16 10 8 0 12 5 9 10 -4 6 -12 8
-18 4 -7 -3 -3 2 7 10 15 12 16 16 5 16 -12 0 -12 2 1 10 13 9 13 10 0 10 -13
0 -13 1 0 10 10 6 11 10 3 10 -7 0 -13 5 -13 11 0 5 4 8 8 5 4 -2 8 8 7 24 0
16 -4 26 -10 23 -5 -3 -5 0 2 7 10 11 9 16 -5 27 -9 7 -12 13 -7 12 22 -3 25
2 15 20 -7 14 -6 21 3 24 6 3 3 6 -7 6 -20 1 -20 1 0 17 13 11 14 14 3 11 -18
-6 -22 21 -6 41 5 6 6 12 1 13 -5 0 0 4 11 9 19 8 19 9 1 9 -16 1 -17 3 -5 18
8 9 9 14 3 10 -6 -3 -11 0 -11 8 0 8 4 12 9 9 13 -8 9 11 -4 25 -11 10 -9 11
7 5 18 -7 19 -6 5 11 -14 17 -13 17 10 11 18 -5 21 -4 10 3 -20 12 -25 81 -8
94 9 6 6 7 -10 4 -23 -5 -23 -5 -6 14 16 18 16 19 1 13 -9 -3 -17 -1 -17 4 0
6 8 13 18 15 16 4 16 5 -1 6 -15 1 -16 4 -6 22 8 15 8 19 0 15 -7 -4 -11 1
-11 13 0 12 6 21 13 21 8 0 7 3 -3 10 -9 5 -19 5 -26 -1 -8 -7 -15 -6 -20 2
-4 8 -3 9 4 5 7 -4 12 -1 12 9 0 10 5 13 12 9 7 -4 8 -3 4 5 -4 6 -11 9 -16 6
-4 -3 -13 2 -20 10 -11 13 -10 14 4 9 9 -3 16 -2 16 4 0 5 -7 12 -15 16 -8 3
-12 12 -9 21 3 8 1 15 -5 15 -6 0 -11 9 -11 20 0 12 -7 20 -17 21 -15 0 -15 2
2 9 17 7 17 9 3 9 -12 1 -15 6 -11 18 4 9 2 14 -3 10 -6 -3 -16 -2 -24 4 -12
7 -12 9 4 9 14 0 16 3 7 13 -6 8 -8 17 -4 20 3 4 1 7 -6 7 -7 0 -9 5 -5 13 6
8 3 8 -9 -1 -14 -12 -16 -11 -12 7 3 15 0 18 -12 14 -12 -5 -14 -3 -7 8 4 8 9
20 10 27 2 11 0 11 -14 0 -14 -11 -15 -10 -9 5 6 15 3 17 -16 12 -20 -7 -21
-6 -4 7 17 13 17 14 -3 36 -12 12 -26 19 -32 16 -7 -4 -8 -2 -4 4 7 11 -6 17
-27 13 -5 -1 -6 3 -2 9 3 6 11 7 17 4 7 -4 8 -2 4 4 -4 7 -17 17 -29 24 -20
10 -21 10 -8 -5 8 -10 9 -17 3 -17 -11 0 -28 38 -24 53 1 5 -2 6 -8 2 -6 -3
-8 -12 -4 -18 3 -7 -4 0 -16 16 -12 15 -27 24 -33 20 -17 -10 -47 -11 -53 -2
-2 5 -11 6 -18 3 -8 -3 -17 0 -21 5 -3 6 -11 9 -16 6 -5 -3 -6 0 -3 8 7 20
-37 17 -54 -3 -10 -13 -11 -13 -6 3 3 9 1 17 -5 17 -6 0 -11 -6 -11 -12 0 -9
-3 -10 -8 -2 -9 14 -73 14 -91 0 -11 -8 -13 -8 -7 2 10 16 -6 15 -21 -2z m57
1 c0 -2 -9 -12 -19 -21 -14 -13 -21 -14 -27 -5 -4 7 -3 10 3 6 6 -4 16 0 23 8
12 14 20 19 20 12z m50 -7 c0 -5 -5 -10 -11 -10 -5 0 -7 5 -4 10 3 6 8 10 11
10 2 0 4 -4 4 -10z m-328 -62 c-7 -7 -12 -8 -12 -2 0 14 12 26 19 19 2 -3 -1
-11 -7 -17z m699 -95 c13 -16 12 -17 -3 -4 -10 7 -18 15 -18 17 0 8 8 3 21
-13z m-8636 -583 c3 -5 1 -10 -4 -10 -6 0 -11 5 -11 10 0 6 2 10 4 10 3 0 8
-4 11 -10z m6629 2 c3 -5 -1 -9 -9 -9 -8 0 -12 4 -9 9 3 4 7 8 9 8 2 0 6 -4 9
-8z m-97 -57 c0 -8 -4 -12 -9 -9 -5 3 -6 10 -3 15 9 13 12 11 12 -6z m-6287
-10 c0 -2 -9 -3 -19 -2 -11 0 -18 5 -15 9 4 6 34 0 34 -7z m6200 -49 c0 -3 -4
-8 -10 -11 -5 -3 -10 -1 -10 4 0 6 5 11 10 11 6 0 10 -2 10 -4z m-473 -208
c-3 -8 -6 -5 -6 6 -1 11 2 17 5 13 3 -3 4 -12 1 -19z m-3083 -240 c-3 -4 -9
-8 -15 -8 -5 0 -9 4 -9 8 0 5 7 9 15 9 8 0 12 -4 9 -9z m-1020 -40 c-3 -4 -9
-8 -15 -8 -5 0 -9 4 -9 8 0 5 7 9 15 9 8 0 12 -4 9 -9z m-3139 -397 c3 -5 2
-12 -3 -15 -5 -3 -9 1 -9 9 0 17 3 19 12 6z m115 -501 c0 -5 -5 -10 -11 -10
-5 0 -7 5 -4 10 3 6 8 10 11 10 2 0 4 -4 4 -10z m9611 -63 c-10 -9 -11 -8 -5
6 3 10 9 15 12 12 3 -3 0 -11 -7 -18z m21 -9 c-8 -8 -6 -15 7 -27 9 -9 11 -12
5 -8 -7 5 -22 3 -33 -3 -17 -9 -21 -8 -21 4 0 10 6 13 15 9 9 -3 15 -2 14 3
-3 13 13 46 19 39 3 -3 1 -10 -6 -17z m-32 -62 c0 -3 -4 -8 -10 -11 -5 -3 -10
-1 -10 4 0 6 5 11 10 11 6 0 10 -2 10 -4z m-9485 -365 c3 -5 2 -12 -3 -15 -5
-3 -9 1 -9 9 0 17 3 19 12 6z m9535 -567 c0 -8 -19 -13 -24 -6 -3 5 1 9 9 9 8
0 15 -2 15 -3z m-9270 -74 c0 -5 -2 -10 -4 -10 -3 0 -8 5 -11 10 -3 6 -1 10 4
10 6 0 11 -4 11 -10z m9530 -240 c0 -5 -5 -10 -11 -10 -5 0 -7 5 -4 10 3 6 8
10 11 10 2 0 4 -4 4 -10z m-9396 -26 c5 -14 4 -15 -9 -4 -17 14 -19 20 -6 20
5 0 12 -7 15 -16z m9473 -120 c-3 -3 -12 -4 -19 -1 -8 3 -5 6 6 6 11 1 17 -2
13 -5z m-9222 -473 c3 -5 2 -12 -3 -15 -5 -3 -9 1 -9 9 0 17 3 19 12 6z m9959
-259 c3 -5 -1 -9 -9 -9 -8 0 -12 4 -9 9 3 4 7 8 9 8 2 0 6 -4 9 -8z m-10085
-355 c8 -10 7 -14 -2 -14 -8 0 -14 6 -14 14 0 7 1 13 2 13 2 0 8 -6 14 -13z
m9796 -145 c-3 -3 -11 0 -18 7 -9 10 -8 11 6 5 10 -3 15 -9 12 -12z m1236
-219 c12 -16 12 -17 -2 -6 -9 7 -20 9 -24 5 -5 -4 -5 -1 -1 6 9 16 11 15 27
-5z m-1147 -71 c3 -5 -1 -9 -9 -9 -8 0 -12 4 -9 9 3 4 7 8 9 8 2 0 6 -4 9 -8z
m-10024 -7 c0 -7 -30 -13 -34 -7 -3 4 4 9 15 9 10 1 19 0 19 -2z m-1120 -319
c0 -11 -19 -15 -25 -6 -3 5 1 10 9 10 9 0 16 -2 16 -4z m494 -65 c-2 -3 -12 3
-22 13 -16 17 -16 18 5 5 12 -7 20 -15 17 -18z m44 4 c-3 -3 -9 2 -12 12 -6
14 -5 15 5 6 7 -7 10 -15 7 -18z m-78 1 c0 -2 -7 -7 -16 -10 -8 -3 -12 -2 -9
4 6 10 25 14 25 6z m11120 -26 c0 -5 -5 -10 -11 -10 -5 0 -7 5 -4 10 3 6 8 10
11 10 2 0 4 -4 4 -10z m-10565 -60 c3 -5 1 -10 -4 -10 -6 0 -11 5 -11 10 0 6
2 10 4 10 3 0 8 -4 11 -10z m10345 -120 c0 -5 -2 -10 -4 -10 -3 0 -8 5 -11 10
-3 6 -1 10 4 10 6 0 11 -4 11 -10z m230 -46 c0 -8 -19 -13 -24 -6 -3 5 1 9 9
9 8 0 15 -2 15 -3z m-515 -134 c3 -5 -1 -10 -10 -10 -9 0 -13 5 -10 10 3 6 8
10 10 10 2 0 7 -4 10 -10z m270 -439 c-3 -6 -11 -11 -16 -11 -5 0 -4 6 3 14
14 16 24 13 13 -3z m-10320 -1 c3 -6 -1 -7 -9 -4 -18 7 -21 14 -7 14 6 0 13
-4 16 -10z m5 -60 c0 -5 -5 -10 -11 -10 -5 0 -7 5 -4 10 3 6 8 10 11 10 2 0 4
-4 4 -10z m-510 -24 c0 -2 -7 -7 -16 -10 -8 -3 -12 -2 -9 4 6 10 25 14 25 6z
m15 -65 c3 -5 0 -13 -6 -17 -7 -4 -9 -3 -5 4 3 5 0 13 -6 15 -9 4 -10 6 -1 6
6 1 14 -3 18 -8z m305 -26 c11 -13 10 -14 -4 -9 -9 3 -16 10 -16 15 0 13 6 11
20 -6z m-300 -219 c0 -3 -4 -8 -10 -11 -5 -3 -10 -1 -10 4 0 6 5 11 10 11 6 0
10 -2 10 -4z m-120 -312 c0 -8 -19 -13 -24 -6 -3 5 1 9 9 9 8 0 15 -2 15 -3z
m40 -448 c0 -3 -4 -8 -10 -11 -5 -3 -10 -1 -10 4 0 6 5 11 10 11 6 0 10 -2 10
-4z m-333 -138 c-3 -8 -6 -5 -6 6 -1 11 2 17 5 13 3 -3 4 -12 1 -19z m12173
-68 c0 -5 -5 -10 -11 -10 -5 0 -7 5 -4 10 3 6 8 10 11 10 2 0 4 -4 4 -10z m85
-180 c3 -6 -1 -7 -9 -4 -18 7 -21 14 -7 14 6 0 13 -4 16 -10z m-12415 -25 c0
-12 -19 -12 -23 0 -4 9 -1 12 9 8 7 -3 14 -7 14 -8z m146 -434 c-3 -5 1 -14 9
-21 8 -7 15 -17 15 -22 0 -6 -9 0 -19 13 -17 21 -19 39 -5 39 3 0 3 -4 0 -9z
m11974 -5 c0 -3 -4 -8 -10 -11 -5 -3 -10 -1 -10 4 0 6 5 11 10 11 6 0 10 -2
10 -4z m-11916 -95 c-2 -3 -12 3 -22 13 -16 17 -16 18 5 5 12 -7 20 -15 17
-18z m11738 -13 c-7 -7 -12 -8 -12 -2 0 14 12 26 19 19 2 -3 -1 -11 -7 -17z
m-10717 -16 c-3 -3 -11 0 -18 7 -9 10 -8 11 6 5 10 -3 15 -9 12 -12z m10576
-25 c-10 -9 -11 -8 -5 6 3 10 9 15 12 12 3 -3 0 -11 -7 -18z m-10826 -57 c-3
-5 -12 -10 -18 -10 -7 0 -6 4 3 10 19 12 23 12 15 0z m10095 -425 c-7 -9 -15
-13 -19 -10 -3 3 1 10 9 15 21 14 24 12 10 -5z m-415 -666 c-4 -5 -12 -9 -18
-8 -9 0 -8 2 1 6 6 2 9 10 6 15 -4 7 -2 8 5 4 6 -4 9 -12 6 -17z m-8410 -159
c3 -5 2 -10 -4 -10 -5 0 -13 5 -16 10 -3 6 -2 10 4 10 5 0 13 -4 16 -10z
m8060 -580 c3 -5 1 -10 -4 -10 -6 0 -11 5 -11 10 0 6 2 10 4 10 3 0 8 -4 11
-10z m-28 -175 c0 -8 -4 -12 -9 -9 -5 3 -6 10 -3 15 9 13 12 11 12 -6z m-7752
-5 c3 -5 1 -10 -4 -10 -6 0 -11 5 -11 10 0 6 2 10 4 10 3 0 8 -4 11 -10z m0
-100 c3 -5 1 -10 -4 -10 -6 0 -11 5 -11 10 0 6 2 10 4 10 3 0 8 -4 11 -10z
m-38 -245 c0 -6 -6 -12 -12 -12 -6 0 -12 6 -12 12 0 6 6 12 12 12 6 0 12 -6
12 -12z m8023 -570 c7 -9 8 -15 2 -15 -5 0 -12 7 -16 15 -3 8 -4 15 -2 15 2 0
9 -7 16 -15z m-8403 -481 c-3 -3 -12 -4 -19 -1 -8 3 -5 6 6 6 11 1 17 -2 13
-5z m8764 -477 c-10 -9 -11 -8 -5 6 3 10 9 15 12 12 3 -3 0 -11 -7 -18z m34
-307 c3 -5 2 -10 -4 -10 -5 0 -13 5 -16 10 -3 6 -2 10 4 10 5 0 13 -4 16 -10z
m-9007 -45 c-3 -3 -9 2 -12 12 -6 14 -5 15 5 6 7 -7 10 -15 7 -18z"/>
<path d="M10880 13658 c-13 -8 -12 -9 1 -5 9 3 21 1 27 -5 6 -6 12 -5 17 4 5
7 5 10 0 6 -4 -4 -13 -4 -19 2 -7 5 -17 5 -26 -2z"/>
<path d="M10526 13652 c-3 -5 1 -9 9 -9 8 0 12 4 9 9 -3 4 -7 8 -9 8 -2 0 -6
-4 -9 -8z"/>
<path d="M10281 13554 c0 -11 3 -14 6 -6 3 7 2 16 -1 19 -3 4 -6 -2 -5 -13z"/>
<path d="M10257 13543 c-4 -3 -7 -11 -7 -17 0 -6 5 -5 12 2 6 6 9 14 7 17 -3
3 -9 2 -12 -2z"/>
<path d="M2510 12919 c0 -5 5 -7 10 -4 6 3 10 8 10 11 0 2 -4 4 -10 4 -5 0
-10 -5 -10 -11z"/>
<path d="M8770 12759 c0 -5 5 -7 10 -4 6 3 10 8 10 11 0 2 -4 4 -10 4 -5 0
-10 -5 -10 -11z"/>
<path d="M11310 12760 c0 -5 5 -10 11 -10 5 0 7 5 4 10 -3 6 -8 10 -11 10 -2
0 -4 -4 -4 -10z"/>
<path d="M3321 12644 c0 -11 3 -14 6 -6 3 7 2 16 -1 19 -3 4 -6 -2 -5 -13z"/>
<path d="M3340 12634 c0 -2 9 -8 20 -14 11 -6 20 -7 20 -2 0 6 -9 12 -20 15
-11 3 -20 3 -20 1z"/>
<path d="M8315 12580 c-4 -6 -11 -7 -17 -4 -7 4 -8 2 -4 -4 7 -12 36 -5 36 9
0 12 -7 11 -15 -1z"/>
<path d="M3667 12509 c7 -7 15 -10 18 -7 3 3 -2 9 -12 12 -14 6 -15 5 -6 -5z"/>
<path d="M7570 12489 c0 -5 5 -7 10 -4 6 3 10 8 10 11 0 2 -4 4 -10 4 -5 0
-10 -5 -10 -11z"/>
<path d="M6147 12479 c7 -7 15 -10 18 -7 3 3 -2 9 -12 12 -14 6 -15 5 -6 -5z"/>
<path d="M3815 12460 c3 -5 8 -10 11 -10 2 0 4 5 4 10 0 6 -5 10 -11 10 -5 0
-7 -4 -4 -10z"/>
<path d="M5870 12439 c0 -5 5 -7 10 -4 6 3 10 8 10 11 0 2 -4 4 -10 4 -5 0
-10 -5 -10 -11z"/>
<path d="M5400 12400 c-9 -6 -10 -10 -3 -10 6 0 15 5 18 10 8 12 4 12 -15 0z"/>
<path d="M11285 12340 c-3 -6 1 -7 9 -4 18 7 21 14 7 14 -6 0 -13 -4 -16 -10z"/>
<path d="M4430 12300 c0 -5 5 -10 11 -10 5 0 7 5 4 10 -3 6 -8 10 -11 10 -2 0
-4 -4 -4 -10z"/>
<path d="M1180 12100 c0 -5 5 -10 11 -10 5 0 7 5 4 10 -3 6 -8 10 -11 10 -2 0
-4 -4 -4 -10z"/>
<path d="M11080 11540 c-12 -7 -10 -9 7 -7 12 0 19 5 17 9 -6 10 -6 10 -24 -2z"/>
<path d="M11054 11479 c0 -13 3 -15 13 -7 7 6 13 12 13 13 0 2 -6 5 -13 8 -7
3 -13 -3 -13 -14z"/>
<path d="M11035 11440 c3 -5 8 -10 11 -10 2 0 4 5 4 10 0 6 -5 10 -11 10 -5 0
-7 -4 -4 -10z"/>
<path d="M10983 11408 c-18 -20 -18 -21 4 -10 17 10 22 9 27 -4 4 -9 1 -24 -6
-33 -11 -14 -11 -14 3 -4 9 7 20 9 24 5 5 -4 5 -1 1 6 -5 8 -1 19 10 28 18 13
18 14 1 8 -11 -4 -17 -2 -15 6 5 21 -30 19 -49 -2z"/>
<path d="M10990 11379 c0 -5 5 -7 10 -4 6 3 10 8 10 11 0 2 -4 4 -10 4 -5 0
-10 -5 -10 -11z"/>
<path d="M1346 11122 c-3 -5 1 -9 9 -9 8 0 15 4 15 9 0 4 -4 8 -9 8 -6 0 -12
-4 -15 -8z"/>
<path d="M11035 10280 c3 -5 8 -10 11 -10 2 0 4 5 4 10 0 6 -5 10 -11 10 -5 0
-7 -4 -4 -10z"/>
<path d="M1990 9646 c0 -4 7 -14 15 -22 8 -9 15 -11 15 -6 0 5 -7 15 -15 22
-8 7 -15 9 -15 6z"/>
<path d="M11517 9439 c7 -7 15 -10 18 -7 3 3 -2 9 -12 12 -14 6 -15 5 -6 -5z"/>
<path d="M11554 9365 c1 -8 7 -20 14 -27 8 -8 9 -5 5 11 -6 25 -22 38 -19 16z"/>
<path d="M12426 9318 c3 -5 10 -6 15 -3 13 9 11 12 -6 12 -8 0 -12 -4 -9 -9z"/>
<path d="M2095 9249 c-4 -6 -5 -12 -2 -15 2 -3 7 2 10 11 7 17 1 20 -8 4z"/>
<path d="M11655 9150 c-3 -5 -1 -10 4 -10 6 0 11 5 11 10 0 6 -2 10 -4 10 -3
0 -8 -4 -11 -10z"/>
<path d="M12486 8668 c3 -5 10 -6 15 -3 13 9 11 12 -6 12 -8 0 -12 -4 -9 -9z"/>
<path d="M1366 8457 c3 -10 9 -15 12 -12 3 3 0 11 -7 18 -10 9 -11 8 -5 -6z"/>
<path d="M13105 8420 c-3 -6 1 -7 9 -4 18 7 21 14 7 14 -6 0 -13 -4 -16 -10z"/>
<path d="M12056 8348 c3 -5 10 -6 15 -3 13 9 11 12 -6 12 -8 0 -12 -4 -9 -9z"/>
<path d="M12465 7840 c3 -5 8 -10 11 -10 2 0 4 5 4 10 0 6 -5 10 -11 10 -5 0
-7 -4 -4 -10z"/>
<path d="M11870 7811 c0 -5 7 -12 16 -15 14 -5 15 -4 4 9 -14 17 -20 19 -20 6z"/>
<path d="M12526 7753 c-6 -14 -5 -15 5 -6 7 7 10 15 7 18 -3 3 -9 -2 -12 -12z"/>
<path d="M12370 7684 c0 -8 5 -12 10 -9 6 4 8 11 5 16 -9 14 -15 11 -15 -7z"/>
<path d="M12503 7685 c0 -8 4 -12 9 -9 5 3 6 10 3 15 -9 13 -12 11 -12 -6z"/>
<path d="M1683 7613 c-15 -5 -17 -23 -4 -23 5 0 11 7 15 15 3 8 4 15 3 14 -1
0 -8 -3 -14 -6z"/>
<path d="M11870 7203 c0 -6 8 -17 18 -24 16 -13 16 -13 2 6 -8 11 -16 22 -17
24 -2 2 -3 0 -3 -6z"/>
<path d="M12257 7196 c-4 -10 -1 -13 8 -9 8 3 12 9 9 14 -7 12 -11 11 -17 -5z"/>
<path d="M1578 7093 c6 -2 9 -10 5 -16 -3 -7 -2 -9 2 -4 5 4 18 -1 29 -10 20
-17 20 -17 6 1 -14 18 -13 18 10 12 21 -6 22 -5 7 4 -9 6 -21 9 -26 5 -5 -3
-12 -1 -16 5 -3 5 -12 10 -18 9 -9 0 -8 -2 1 -6z"/>
<path d="M13110 5662 c0 -5 7 -9 15 -9 8 0 12 4 9 9 -3 4 -9 8 -15 8 -5 0 -9
-4 -9 -8z"/>
<path d="M520 5571 c0 -6 4 -13 10 -16 6 -3 7 1 4 9 -7 18 -14 21 -14 7z"/>
<path d="M550 5566 c7 -7 13 -7 20 0 6 6 3 10 -10 10 -13 0 -16 -4 -10 -10z"/>
<path d="M13190 5550 c-9 -6 -10 -10 -3 -10 6 0 15 5 18 10 8 12 4 12 -15 0z"/>
<path d="M730 5506 c0 -2 8 -10 18 -17 15 -13 16 -12 3 4 -13 16 -21 21 -21
13z"/>
<path d="M11805 4620 c-3 -5 -1 -10 4 -10 6 0 11 5 11 10 0 6 -2 10 -4 10 -3
0 -8 -4 -11 -10z"/>
<path d="M2596 4112 c-3 -5 1 -9 9 -9 8 0 12 4 9 9 -3 4 -7 8 -9 8 -2 0 -6 -4
-9 -8z"/>
<path d="M11284 3739 c0 -13 3 -15 13 -7 7 6 13 12 13 13 0 2 -6 5 -13 8 -7 3
-13 -3 -13 -14z"/>
<path d="M3140 3146 c0 -2 7 -7 16 -10 8 -3 12 -2 9 4 -6 10 -25 14 -25 6z"/>
<path d="M3100 2450 c-9 -6 -10 -10 -3 -10 6 0 15 5 18 10 8 12 4 12 -15 0z"/>
<path d="M11246 1878 c3 -5 10 -6 15 -3 13 9 11 12 -6 12 -8 0 -12 -4 -9 -9z"/>
<path d="M2620 1119 c0 -5 5 -7 10 -4 6 3 10 8 10 11 0 2 -4 4 -10 4 -5 0 -10
-5 -10 -11z"/>
<path d="M2595 1060 c-3 -5 -2 -10 4 -10 5 0 13 5 16 10 3 6 2 10 -4 10 -5 0
-13 -4 -16 -10z"/>
<path d="M11585 720 c-3 -5 -1 -10 4 -10 6 0 11 5 11 10 0 6 -2 10 -4 10 -3 0
-8 -4 -11 -10z"/>
<path d="M2520 557 c12 -16 12 -20 -1 -28 -9 -5 -10 -9 -2 -9 22 0 26 22 7 38
-17 16 -17 16 -4 -1z"/>
<path d="M3195 80 c-3 -5 -1 -10 4 -10 6 0 11 5 11 10 0 6 -2 10 -4 10 -3 0
-8 -4 -11 -10z"/>
<path d="M7035 80 c-3 -5 -1 -10 4 -10 6 0 11 5 11 10 0 6 -2 10 -4 10 -3 0
-8 -4 -11 -10z"/>
</g>
</svg>
